<svg xmlns="http://www.w3.org/2000/svg" xmlns:xlink="http://www.w3.org/1999/xlink" width="22.515" height="22.515" viewBox="0 0 22.515 22.515"><defs><style>.a,.e{fill:url(#a);}.b,.g{fill:none;}.b,.e{stroke:#fff;}.b{stroke-linecap:round;stroke-linejoin:round;}.c{fill:url(#b);}.d{fill:url(#d);}.f{stroke:none;}</style><linearGradient id="a" x1="0.5" x2="0.5" y2="1" gradientUnits="objectBoundingBox"><stop offset="0" stop-color="#fff" stop-opacity="0.749"/><stop offset="1" stop-color="#fff" stop-opacity="0.251"/></linearGradient><linearGradient id="b" x1="0.5" x2="0.5" y2="1" gradientUnits="objectBoundingBox"><stop offset="0" stop-color="#fff" stop-opacity="0.251"/><stop offset="1" stop-color="#fff" stop-opacity="0.749"/></linearGradient><linearGradient id="d" x1="0.5" x2="0.5" y2="1" gradientUnits="objectBoundingBox"><stop offset="0" stop-color="#fff" stop-opacity="0.251"/><stop offset="1" stop-color="#fff" stop-opacity="0.251"/></linearGradient></defs><g transform="translate(-0.499 -0.499)"><path class="a" d="M32.836,8.483l.3-.3a3.741,3.741,0,0,0,4.1-.8A3.63,3.63,0,0,0,38.28,4.171a.468.468,0,0,0-.8-.245l-1.1,1.14a.468.468,0,0,1-.337.143H34.592a.468.468,0,0,1-.468-.468V3.285a.467.467,0,0,1,.143-.337l1.139-1.1a.468.468,0,0,0-.245-.8,3.681,3.681,0,0,0-3.247,1.04,3.735,3.735,0,0,0-.783,4.1l-.412.413" transform="translate(-15.821)"/><path class="b" d="M32.836,8.483l.3-.3a3.741,3.741,0,0,0,4.1-.8A3.63,3.63,0,0,0,38.28,4.171a.468.468,0,0,0-.8-.245l-1.1,1.14a.468.468,0,0,1-.337.143H34.592a.468.468,0,0,1-.468-.468V3.285a.467.467,0,0,1,.143-.337l1.139-1.1a.468.468,0,0,0-.245-.8,3.681,3.681,0,0,0-3.247,1.04,3.735,3.735,0,0,0-.783,4.1l-.412.413" transform="translate(-15.821)"/><path class="c" d="M6.612,30.756l-.412.413a3.741,3.741,0,0,0-4.1.8,3.626,3.626,0,0,0-1.042,3.214.468.468,0,0,0,.8.245l1.1-1.14a.468.468,0,0,1,.337-.143H4.742a.468.468,0,0,1,.468.468v1.456a.468.468,0,0,1-.143.337L3.927,37.5a.468.468,0,0,0,.245.8,3.678,3.678,0,0,0,3.247-1.04,3.735,3.735,0,0,0,.783-4.1l.412-.413" transform="translate(0 -15.84)"/><path class="b" d="M6.612,30.756l-.412.413a3.741,3.741,0,0,0-4.1.8,3.626,3.626,0,0,0-1.042,3.214.468.468,0,0,0,.8.245l1.1-1.14a.468.468,0,0,1,.337-.143H4.742a.468.468,0,0,1,.468.468v1.456a.468.468,0,0,1-.143.337L3.927,37.5a.468.468,0,0,0,.245.8,3.678,3.678,0,0,0,3.247-1.04,3.735,3.735,0,0,0,.783-4.1l.412-.413" transform="translate(0 -15.84)"/><g transform="translate(14.916 14.9)"><path class="c" d="M30.756,32.723l.413.412a3.741,3.741,0,0,0,.8,4.1,3.625,3.625,0,0,0,3.214,1.042.468.468,0,0,0,.245-.8l-1.14-1.1a.467.467,0,0,1-.143-.337V34.593a.468.468,0,0,1,.468-.468h1.456a.468.468,0,0,1,.337.144l1.1,1.139a.468.468,0,0,0,.8-.245,3.679,3.679,0,0,0-1.04-3.247,3.735,3.735,0,0,0-4.105-.783l-.412-.412" transform="translate(-30.756 -30.722)"/><path class="b" d="M30.756,32.723l.413.412a3.741,3.741,0,0,0,.8,4.1,3.625,3.625,0,0,0,3.214,1.042.468.468,0,0,0,.245-.8l-1.14-1.1a.467.467,0,0,1-.143-.337V34.593a.468.468,0,0,1,.468-.468h1.456a.468.468,0,0,1,.337.144l1.1,1.139a.468.468,0,0,0,.8-.245,3.679,3.679,0,0,0-1.04-3.247,3.735,3.735,0,0,0-4.105-.783l-.412-.412" transform="translate(-30.756 -30.722)"/></g><g transform="translate(1 1.001)"><path class="d" d="M8.6,6.612,8.183,6.2a3.741,3.741,0,0,0-.8-4.1A3.626,3.626,0,0,0,4.171,1.054a.468.468,0,0,0-.245.8l1.14,1.1a.468.468,0,0,1,.143.337V4.742a.468.468,0,0,1-.468.468H3.285a.468.468,0,0,1-.337-.143l-1.1-1.139a.468.468,0,0,0-.8.245A3.679,3.679,0,0,0,2.094,7.42,3.736,3.736,0,0,0,6.2,8.2l.281.281" transform="translate(-1 -1.001)"/><path class="b" d="M8.6,6.612,8.183,6.2a3.741,3.741,0,0,0-.8-4.1A3.626,3.626,0,0,0,4.171,1.054a.468.468,0,0,0-.245.8l1.14,1.1a.468.468,0,0,1,.143.337V4.742a.468.468,0,0,1-.468.468H3.285a.468.468,0,0,1-.337-.143l-1.1-1.139a.468.468,0,0,0-.8.245A3.679,3.679,0,0,0,2.094,7.42,3.736,3.736,0,0,0,6.2,8.2l.281.281" transform="translate(-1 -1.001)"/></g><g class="e" transform="translate(6.551 6.751)"><circle class="f" cx="5" cy="5" r="5"/><circle class="g" cx="5" cy="5" r="4.5"/></g></g></svg>