<?xml version="1.0" encoding="utf-8"?>
<!-- Generator: Adobe Illustrator 26.5.0, SVG Export Plug-In . SVG Version: 6.00 Build 0)  -->
<svg version="1.1" id="Layer_1" xmlns="http://www.w3.org/2000/svg" xmlns:xlink="http://www.w3.org/1999/xlink" x="0px" y="0px"
	 viewBox="0 0 22.5 22.5" style="enable-background:new 0 0 22.5 22.5;" xml:space="preserve">
<style type="text/css">
	.st0{fill:#E3E3E3;}
	.st1{fill:#FFFFFF;}
	.st2{fill:#00DC5A;}
</style>
<g id="Advanced-Settings-Color" transform="translate(-0.499 -0.499)">
	<path id="Path_16810" class="st0" d="M17,8.5l0.3-0.3c1.4,0.6,3,0.3,4.1-0.8c0.9-0.8,1.2-2,1-3.2c0-0.3-0.3-0.4-0.5-0.4
		c-0.1,0-0.2,0.1-0.3,0.1l-1.1,1.1c-0.1,0.1-0.2,0.1-0.3,0.1h-1.5c-0.3,0-0.5-0.2-0.5-0.5V3.3c0-0.1,0.1-0.2,0.1-0.3l1.1-1.1
		c0.2-0.2,0.2-0.5,0-0.7c-0.1-0.1-0.2-0.1-0.3-0.1c-1.2-0.2-2.4,0.2-3.2,1c-1.1,1.1-1.4,2.7-0.8,4.1l-0.4,0.4"/>
	<g id="Path_16811">
		<path class="st1" d="M17,9c-0.1,0-0.3,0-0.4-0.1c-0.2-0.2-0.2-0.5,0-0.7L17,7.8c0.1-0.1,0.4-0.2,0.5-0.1C18.7,8.2,20.1,8,21.1,7
			c0.7-0.7,1.1-1.8,0.9-2.8l-1,1.2c-0.2,0.2-0.4,0.3-0.7,0.3h-1.5c-0.5,0-1-0.4-1-1V3.3c0-0.3,0.1-0.5,0.3-0.7l1.1-1.1
			c-1-0.1-2.1,0.2-2.8,1c-0.9,0.9-1.2,2.3-0.7,3.6c0.1,0.2,0,0.4-0.1,0.5L15.3,7c-0.2,0.2-0.5,0.2-0.7,0c-0.2-0.2-0.2-0.5,0-0.7
			l0.2-0.2c-0.5-1.5-0.1-3.2,1-4.3c1-1,2.3-1.4,3.7-1.2c0.2,0,0.4,0.1,0.5,0.3c0.4,0.4,0.4,1,0,1.4l-1.1,1.1l0,1.4l1.4,0l1.1-1.1
			c0.1-0.2,0.3-0.2,0.5-0.3c0.3,0,0.5,0,0.7,0.2s0.4,0.4,0.4,0.6c0.2,1.3-0.2,2.7-1.2,3.7c-1.1,1.1-2.8,1.5-4.3,1l-0.1,0.1
			C17.3,8.9,17.1,9,17,9z"/>
	</g>
	<path id="Path_16812" class="st0" d="M6.6,14.9l-0.4,0.4c-1.4-0.6-3-0.3-4.1,0.8c-0.9,0.8-1.2,2-1,3.2c0,0.3,0.3,0.4,0.5,0.4
		c0.1,0,0.2-0.1,0.3-0.1L3,18.5c0.1-0.1,0.2-0.1,0.3-0.1h1.4c0.3,0,0.5,0.2,0.5,0.5v1.5c0,0.1-0.1,0.2-0.1,0.3l-1.1,1.1
		c-0.2,0.2-0.2,0.5,0,0.7c0.1,0.1,0.2,0.1,0.3,0.1c1.2,0.2,2.4-0.2,3.2-1c1.1-1.1,1.4-2.7,0.8-4.1l0.4-0.4"/>
	<g id="Path_16813">
		<path class="st1" d="M4.8,23c-0.2,0-0.5,0-0.7-0.1c-0.2,0-0.4-0.1-0.5-0.3c-0.4-0.4-0.4-1,0-1.4l1.1-1.1l0-1.4l-1.4,0l-1.1,1.1
			c-0.1,0.1-0.3,0.2-0.5,0.3c-0.3,0-0.5,0-0.7-0.2c-0.2-0.1-0.4-0.4-0.4-0.6c-0.2-1.3,0.2-2.7,1.2-3.7c1.1-1.1,2.8-1.5,4.3-1
			l0.2-0.2c0.2-0.2,0.5-0.2,0.7,0c0.2,0.2,0.2,0.5,0,0.7l-0.4,0.4c-0.1,0.1-0.4,0.2-0.5,0.1c-1.2-0.5-2.6-0.2-3.6,0.7
			c-0.7,0.7-1.1,1.8-0.9,2.8l1-1.2c0.2-0.2,0.4-0.3,0.7-0.3h1.4c0.5,0,1,0.4,1,1v1.5c0,0.3-0.1,0.5-0.3,0.7L4.3,22
			c1,0.1,2.1-0.2,2.8-1c0.9-0.9,1.2-2.3,0.7-3.6c-0.1-0.2,0-0.4,0.1-0.5l0.4-0.4c0.2-0.2,0.5-0.2,0.7,0c0.2,0.2,0.2,0.5,0,0.7
			l-0.2,0.2c0.5,1.5,0.1,3.2-1,4.3C7,22.6,5.9,23,4.8,23z"/>
	</g>
	<g id="Group_223" transform="translate(14.916 14.9)">
		<path id="Path_16814" class="st0" d="M0,2l0.4,0.4c-0.6,1.4-0.3,3,0.8,4.1c0.8,0.9,2,1.2,3.2,1c0.3,0,0.4-0.3,0.4-0.5
			c0-0.1-0.1-0.2-0.1-0.3L3.5,5.7C3.4,5.6,3.4,5.5,3.4,5.3V3.9c0-0.3,0.2-0.5,0.5-0.5h1.5c0.1,0,0.2,0.1,0.3,0.1l1.1,1.1
			c0.2,0.2,0.5,0.2,0.7,0c0.1-0.1,0.1-0.2,0.1-0.3c0.2-1.2-0.2-2.4-1-3.2C5.4,0.1,3.8-0.2,2.4,0.4L2,0"/>
		<g id="Path_16815">
			<path class="st1" d="M3.8,8.1c-1.1,0-2.2-0.4-3-1.2c-1.1-1.1-1.5-2.8-1-4.3l-0.2-0.2c-0.2-0.2-0.2-0.5,0-0.7
				c0.2-0.2,0.5-0.2,0.7,0l0.4,0.4C0.9,2.2,1,2.4,0.9,2.6C0.4,3.8,0.6,5.2,1.6,6.2c0.7,0.7,1.8,1.1,2.8,0.9L3.2,6
				C3,5.8,2.9,5.6,2.9,5.3V3.9c0-0.5,0.4-1,1-1h1.5C5.6,2.9,5.8,3,6,3.2l1.1,1.1c0.1-1-0.2-2.1-1-2.8C5.2,0.6,3.8,0.4,2.6,0.9
				C2.4,1,2.2,0.9,2.1,0.8L1.6,0.4c-0.2-0.2-0.2-0.5,0-0.7c0.2-0.2,0.5-0.2,0.7,0l0.2,0.2c1.5-0.5,3.2-0.1,4.3,1
				c1,1,1.4,2.3,1.2,3.7c0,0.2-0.1,0.4-0.3,0.5C7.6,5.2,7.3,5.4,7.1,5.3C6.8,5.3,6.6,5.2,6.4,5L5.3,3.9l-1.4,0l0,1.4L5,6.4
				c0.1,0.1,0.2,0.3,0.3,0.5c0,0.3,0,0.5-0.2,0.7C5,7.9,4.8,8,4.5,8.1C4.3,8.1,4,8.1,3.8,8.1z"/>
		</g>
	</g>
	<g id="Group_224" transform="translate(1 1.001)">
		<path id="Path_16816" class="st0" d="M7.6,5.6L7.2,5.2c0.6-1.4,0.3-3-0.8-4.1c-0.8-0.9-2-1.2-3.2-1c-0.3,0-0.4,0.3-0.4,0.5
			c0,0.1,0.1,0.2,0.1,0.3L4.1,2C4.2,2,4.2,2.2,4.2,2.3v1.5C4.2,4,4,4.2,3.7,4.2H2.3C2.2,4.2,2,4.2,2,4.1L0.9,2.9
			c-0.2-0.2-0.5-0.2-0.7,0C0.1,3,0.1,3.1,0.1,3.2c-0.2,1.2,0.2,2.4,1,3.2c1.1,1.1,2.7,1.4,4.1,0.8l0.3,0.3"/>
		<g id="Path_16817">
			<path class="st1" d="M3.7,8c-1.1,0-2.2-0.4-3-1.2c-1-1-1.4-2.3-1.2-3.7c0-0.2,0.1-0.4,0.3-0.5C0,2.4,0.3,2.3,0.5,2.3
				c0.3,0,0.5,0.1,0.7,0.3l1.1,1.1l1.4,0l0-1.4L2.6,1.2C2.4,1.1,2.3,0.9,2.3,0.7c-0.1-0.5,0.3-1,0.8-1.1c1.3-0.2,2.7,0.2,3.7,1.2
				c1.1,1.1,1.5,2.8,1,4.3L8,5.3C8.2,5.5,8.2,5.8,8,6C7.8,6.2,7.4,6.2,7.3,6L6.8,5.6C6.7,5.4,6.6,5.2,6.7,5C7.2,3.8,7,2.4,6,1.5
				C5.3,0.7,4.3,0.4,3.3,0.6l1.2,1C4.6,1.8,4.7,2,4.7,2.3v1.4c0,0.5-0.4,1-1,1H2.3C2,4.7,1.8,4.6,1.6,4.4L0.5,3.3
				c-0.1,1,0.2,2.1,1,2.8C2.4,7,3.8,7.3,5,6.7c0.2-0.1,0.4,0,0.6,0.1l0.3,0.3C6,7.3,6,7.6,5.8,7.8C5.6,8,5.3,8,5.1,7.8L5.1,7.8
				C4.6,7.9,4.2,8,3.7,8z"/>
		</g>
	</g>
	<g id="Ellipse_42" transform="translate(6.551 6.751)">
		<circle class="st2" cx="5" cy="5" r="5"/>
		<g>
			<path class="st1" d="M5,10c-2.8,0-5-2.2-5-5s2.2-5,5-5s5,2.2,5,5S7.8,10,5,10z M5,1C2.8,1,1,2.8,1,5c0,2.2,1.8,4,4,4
				c2.2,0,4-1.8,4-4C9,2.8,7.2,1,5,1z"/>
		</g>
	</g>
</g>
</svg>
