<svg xmlns="http://www.w3.org/2000/svg" width="66.132" height="79.844" viewBox="0 0 66.132 79.844"><defs><style>.a{fill:#66e1ff;}.b{fill:#c2f3ff;}.c{fill:#e3e3e3;}.d,.e{fill:none;stroke:#002567;stroke-linecap:round;stroke-linejoin:round;}.e{stroke-width:2px;}</style></defs><g transform="translate(-4.5 -0.5)"><path class="a" d="M70.132,21.465V76.416A3.428,3.428,0,0,1,66.7,79.844H8.428A3.428,3.428,0,0,1,5,76.416V4.428A3.428,3.428,0,0,1,8.428,1H49.667a17.915,17.915,0,0,1,3.325.309v13.4A3.428,3.428,0,0,0,56.42,18.14h13.4a17.917,17.917,0,0,1,.309,3.325Z" transform="translate(0 0)"/><path class="b" d="M54.192,17.317,5,66.544V4.428A3.428,3.428,0,0,1,8.428,1H49.667a17.915,17.915,0,0,1,3.325.309v13.4a3.532,3.532,0,0,0,1.2,2.605Z" transform="translate(0 0)"/><path class="c" d="M49.832,18.011h-13.4A3.428,3.428,0,0,1,33,14.583V1.18A20.3,20.3,0,0,1,49.832,18.011Z" transform="translate(19.992 0.128)"/><path class="d" d="M66.7,79.844a3.428,3.428,0,0,0,3.428-3.428V21.493A20.482,20.482,0,0,0,49.65,1H8.428A3.428,3.428,0,0,0,5,4.428V76.416a3.428,3.428,0,0,0,3.428,3.428Z" transform="translate(0 0)"/><path class="e" d="M11,45.568V30.142a5.142,5.142,0,0,1,10.284,0V45.568" transform="translate(4.284 17.136)"/><path class="e" d="M11,31.008H21.284" transform="translate(4.284 21.426)"/><path class="e" d="M31.284,30.142a5.142,5.142,0,0,1-5.142,5.142H21V25h5.142a5.142,5.142,0,0,1,5.142,5.142Z" transform="translate(11.424 17.136)"/><path class="e" d="M21,41.292V31.008" transform="translate(11.424 21.426)"/><path class="e" d="M41.284,30.142a5.142,5.142,0,0,1-5.142,5.142H31V25h5.142a5.142,5.142,0,0,1,5.142,5.142Z" transform="translate(18.564 17.136)"/><path class="e" d="M31,41.292V31.008" transform="translate(18.564 21.426)"/><path class="d" d="M44.141,6.893A20.478,20.478,0,0,0,33,1.168V14.592a3.428,3.428,0,0,0,3.428,3.428H49.866A20.5,20.5,0,0,0,44.141,6.893Z" transform="translate(19.992 0.12)"/></g></svg>