<svg xmlns="http://www.w3.org/2000/svg" width="32.426" height="32.426" viewBox="0 0 32.426 32.426"><defs><style>.a{fill:#00dc5a;}.b{fill:#fff;opacity:0.25;}.c{fill:#54d9ff;}.d{fill:none;stroke:#fff;stroke-linecap:round;stroke-linejoin:round;}</style></defs><g transform="translate(-0.5 -0.5)"><path class="a" d="M26.416,25A3.416,3.416,0,0,0,23,28.416v4.1a3.416,3.416,0,0,0,3.416,3.416h3.416l4.1,4.1v-4.1h2.05A3.416,3.416,0,0,0,39.4,32.515v-4.1A3.416,3.416,0,0,0,35.98,25Z" transform="translate(-6.97 -7.604)"/><path class="b" d="M35.98,25H26.416A3.416,3.416,0,0,0,23,28.416v4.1A3.416,3.416,0,0,1,26.416,29.1H35.98A3.416,3.416,0,0,1,39.4,32.515v-4.1A3.416,3.416,0,0,0,35.98,25Z" transform="translate(-6.97 -7.604)"/><path class="c" d="M20.129,1H6.465A5.465,5.465,0,0,0,1,6.465V13.3a5.465,5.465,0,0,0,5.465,5.465H7.832v5.465l6.149-5.465h6.149A5.466,5.466,0,0,0,25.594,13.3V6.465A5.465,5.465,0,0,0,20.129,1Z"/><path class="b" d="M20.129,1H6.465A5.465,5.465,0,0,0,1,6.465v4.1A5.465,5.465,0,0,1,6.465,5.1H20.129a5.465,5.465,0,0,1,5.465,5.465v-4.1A5.465,5.465,0,0,0,20.129,1Z"/><path class="d" d="M20.129,1H6.465A5.465,5.465,0,0,0,1,6.465V13.3a5.465,5.465,0,0,0,5.465,5.465H7.832v5.465l6.149-5.465h6.149A5.466,5.466,0,0,0,25.594,13.3V6.465A5.465,5.465,0,0,0,20.129,1Z"/><path class="d" d="M23,26.709v5.806a3.416,3.416,0,0,0,3.416,3.416h3.416l4.1,4.1v-4.1h2.05A3.416,3.416,0,0,0,39.4,32.515v-4.1A3.416,3.416,0,0,0,35.98,25H31.02" transform="translate(-6.97 -7.604)"/></g></svg>