<svg xmlns="http://www.w3.org/2000/svg" width="32.661" height="34.232" viewBox="0 0 32.661 34.232"><defs><style>.a{fill:#004096;}.b{fill:#002250;}.c{fill:#b2b2b2;}.d{fill:#eee;}.e{fill:none;}.e,.f{stroke:#002567;stroke-linecap:round;stroke-linejoin:round;}.f{fill:#ffef5e;}</style></defs><g transform="translate(-1.494 -0.5)"><path class="a" d="M2,34.091V17.545A16.2,16.2,0,0,1,17.825,1,16.2,16.2,0,0,1,33.651,17.545V34.091Z" transform="translate(0)"/><path class="b" d="M13.624,15.655c0-4.81,2.86-8.707,7.464-8.707s7.464,3.9,7.464,8.707V28.566H13.624Z" transform="translate(-3.264 -1.669)"/><path class="c" d="M30.142,40.826,24.387,25H15.755L10,40.826Z" transform="translate(-2.247 -6.735)"/><path class="d" d="M28.547,33.632,25.408,25H16.775l-3.139,8.632Z" transform="translate(-3.267 -6.735)"/><path class="e" d="M15.755,25,10,40.826" transform="translate(-2.247 -6.735)"/><path class="e" d="M35.755,40.826,30,25" transform="translate(-7.859 -6.735)"/><path class="e" d="M2,34.091V17.545A16.2,16.2,0,0,1,17.825,1,16.2,16.2,0,0,1,33.651,17.545V34.091" transform="translate(0)"/><path class="f" d="M18,18.036C18,15.253,19.656,13,22.316,13s4.316,2.253,4.316,5.036v3.6H18Z" transform="translate(-4.492 -3.368)"/><path class="e" d="M15.818,31H27.59" transform="translate(-3.879 -8.419)"/><path class="e" d="M13.636,37H28.547" transform="translate(-3.267 -10.103)"/><path class="e" d="M11.454,43H29.5" transform="translate(-2.655 -11.787)"/></g></svg>