<svg xmlns="http://www.w3.org/2000/svg" width="39.867" height="39.867" viewBox="0 0 39.867 39.867"><defs><style>.a{fill:#66e1ff;}.b{fill:rgba(255,255,255,0.25);}.c,.f{fill:none;stroke-linecap:round;stroke-linejoin:round;}.c{stroke:#fff;}.d{fill:#e3e3e3;}.e{fill:#fff;}.f{stroke:#002567;}</style></defs><g transform="translate(-0.6 -0.624)"><path class="a" d="M20.533,39.99A19.433,19.433,0,1,0,1.1,20.557,19.433,19.433,0,0,0,20.533,39.99Z"/><path class="b" d="M6.794,34.3A19.433,19.433,0,0,1,34.276,6.817Z" transform="translate(-0.001 -0.001)"/><path class="c" d="M20.533,39.99A19.433,19.433,0,1,0,1.1,20.557,19.433,19.433,0,0,0,20.533,39.99Z"/><path class="d" d="M26.753,26.774a5.83,5.83,0,0,1-11.66,0V17.057h11.66Z" transform="translate(-0.314 -0.358)"/><path class="e" d="M20.847,17.057H15.093v9.717a5.83,5.83,0,0,0,5.754,5.83Z" transform="translate(-0.314 -0.358)"/><path class="d" d="M26.753,16.923a5.83,5.83,0,0,0-11.66,0Z" transform="translate(-0.314 -0.224)"/><path class="e" d="M20.847,11.1a5.83,5.83,0,0,0-5.754,5.83h5.754Z" transform="translate(-0.314 -0.224)"/><path class="f" d="M31.879,27.768a4.858,4.858,0,0,1,0-9.717" transform="translate(-0.582 -0.38)"/><path class="f" d="M31.879,23.021H27.021" transform="translate(-0.582 -0.491)"/><path class="f" d="M10.123,27.768a4.858,4.858,0,1,0,0-9.717" transform="translate(-0.202 -0.38)"/><path class="f" d="M10.123,23.021h4.858" transform="translate(-0.202 -0.491)"/><path class="f" d="M26.975,8.112A5.817,5.817,0,0,1,25,12.484" transform="translate(-0.536 -0.157)"/><path class="f" d="M17.067,12.484a5.812,5.812,0,0,1-1.974-4.372" transform="translate(-0.314 -0.157)"/><path class="f" d="M26.753,26.774a5.83,5.83,0,0,1-11.66,0V17.057h11.66Z" transform="translate(-0.314 -0.358)"/><path class="f" d="M26.753,16.923a5.83,5.83,0,0,0-11.66,0Z" transform="translate(-0.314 -0.224)"/></g></svg>