<?xml version="1.0" encoding="iso-8859-1"?>
<!-- Generator: Adobe Illustrator 19.0.0, SVG Export Plug-In . SVG Version: 6.00 Build 0)  -->
<svg version="1.1" id="Layer_1" xmlns="http://www.w3.org/2000/svg" xmlns:xlink="http://www.w3.org/1999/xlink" x="0px" y="0px"
	 viewBox="0 0 512 512" style="enable-background:new 0 0 512 512;" xml:space="preserve">
<g>
	<g>
		<g>
			<path d="M496,239.978H366.752h-0.016c-1.36-9.472-3.792-18.72-7.536-27.6c-5.648-13.328-13.712-25.312-24-35.6
				c-6.256-6.256-16.368-6.256-22.624,0s-6.256,16.368,0,22.624c7.36,7.36,13.12,15.92,17.152,25.44
				c4.16,9.856,6.272,20.336,6.272,31.136s-2.112,21.28-6.288,31.136c-4.032,9.52-9.792,18.08-17.152,25.44
				c-7.36,7.36-15.92,13.136-25.424,17.136c-19.712,8.336-42.56,8.336-62.288,0c-8.176-3.392-17.536,0.368-20.976,8.512
				s0.352,17.52,8.496,20.96c13.872,5.856,28.544,8.816,43.632,8.816s29.76-2.96,43.6-8.8c13.328-5.632,25.296-13.696,35.6-24
				c10.288-10.288,18.352-22.256,24-35.6c3.76-8.88,6.192-18.128,7.536-27.6h0.016H496c8.848,0,16-7.168,16-16
				C512,247.146,504.848,239.978,496,239.978z"/>
			<path d="M199.44,312.554c-7.36-7.36-13.12-15.92-17.152-25.44c-4.176-9.856-6.288-20.336-6.288-31.136s2.112-21.28,6.288-31.136
				c4.032-9.52,9.792-18.08,17.152-25.44c7.36-7.36,15.92-13.136,25.424-17.136c19.712-8.336,42.56-8.336,62.288,0
				c8.16,3.392,17.52-0.368,20.96-8.512s-0.352-17.52-8.496-20.96c-27.68-11.696-59.552-11.696-87.2,0
				c-13.328,5.632-25.296,13.696-35.6,24c-10.288,10.288-18.352,22.256-24,35.6c-3.856,9.104-6.32,18.608-7.648,28.336
				c-1.216-0.304-2.368-0.752-3.664-0.752H16c-8.848,0-16,7.168-16,16c0,8.832,7.152,16,16,16h125.504
				c1.296,0,2.448-0.448,3.664-0.736c1.328,9.728,3.808,19.232,7.648,28.336c5.648,13.328,13.712,25.312,24,35.6
				c3.12,3.12,7.216,4.688,11.312,4.688s8.192-1.568,11.312-4.688C205.696,328.922,205.696,318.81,199.44,312.554z"/>
			<path d="M210.352,301.626c1.552,1.568,3.6,2.352,5.648,2.352c2.048,0,4.096-0.784,5.664-2.336L256,267.29l34.336,34.336
				c1.568,1.568,3.616,2.352,5.664,2.352c2.048,0,4.096-0.784,5.664-2.336c3.12-3.12,3.12-8.192,0-11.312l-34.352-34.352
				l34.336-34.336c3.136-3.136,3.136-8.192,0.016-11.328c-3.12-3.12-8.192-3.12-11.312,0L256,244.666l-34.336-34.336
				c-3.12-3.12-8.192-3.12-11.312,0s-3.12,8.192,0,11.312l34.336,34.336l-34.336,34.336
				C207.232,293.434,207.232,298.506,210.352,301.626z"/>
		</g>
	</g>
</g>
<g>
</g>
<g>
</g>
<g>
</g>
<g>
</g>
<g>
</g>
<g>
</g>
<g>
</g>
<g>
</g>
<g>
</g>
<g>
</g>
<g>
</g>
<g>
</g>
<g>
</g>
<g>
</g>
<g>
</g>
</svg>
