<svg xmlns="http://www.w3.org/2000/svg" xmlns:xlink="http://www.w3.org/1999/xlink" width="99.364" height="100.258" viewBox="0 0 99.364 100.258"><defs><style>.a{fill:none;}.b{clip-path:url(#a);}.c{fill:#231f20;}.d{fill:#fef8ad;}.e{fill:#01a950;}.f{fill:#00aded;}.g{fill:#e11b23;}.h{fill:#ef5b22;}</style><clipPath id="a"><rect class="a" width="99.364" height="100.258" transform="translate(0 0)"/></clipPath></defs><g transform="translate(0 0.002)"><g class="b" transform="translate(0 -0.002)"><path class="c" d="M0,100.256V46.438a1.063,1.063,0,0,0,.1-.254c.134-1.242.227-2.489.4-3.726A47.11,47.11,0,0,1,5.676,26.611,50.588,50.588,0,0,1,46.912.1,47.472,47.472,0,0,1,65.038,2.389a48.256,48.256,0,0,1,23.37,16.484c9.727,12.56,13.071,26.716,9.656,42.249A48.981,48.981,0,0,1,78.952,90.5a47.183,47.183,0,0,1-28.843,9.65q-23.958.059-47.917.053c-.731,0-1.462.035-2.193.054M68.549,24.816l-.111-.1.012-.011a3.9,3.9,0,0,0-.312-.379,30.543,30.543,0,0,0-16.423-8.085,31.563,31.563,0,0,0-5.645-.329,29.654,29.654,0,0,0-6.07.781,30.574,30.574,0,0,0-23.48,28.876,29.291,29.291,0,0,0,.975,8.522,30.39,30.39,0,0,0,4.089,9.121,1.123,1.123,0,0,1,.175.933c-.428,2.051-.831,4.107-1.245,6.161-.455,2.254-.923,4.505-1.365,6.762-.24,1.224-.437,2.456-.653,3.685l.005-.006-.079.316-.108.507.1.265.67-.087c.331-.03.663-.052.993-.09q4.49-.525,8.98-1.054c2.993-.352,5.986-.711,8.981-1.047a1.34,1.34,0,0,1,.748.163,30.065,30.065,0,0,0,21.536,3.246A30.486,30.486,0,0,0,75.951,32.147a3.646,3.646,0,0,0-.422-.335L73.922,30.04a3.617,3.617,0,0,0-.336-.574,30.212,30.212,0,0,0-4.757-4.431l-.108-.1,0,0-.183-.131.009.01" transform="translate(0 0.002)"/><path class="d" d="M183.2,284.986l-.1-.265.213-.5c.066-.133.139-.263.2-.4q3.278-7.614,6.563-15.225a1.581,1.581,0,0,0,.032-1.321,30.435,30.435,0,0,1,9.59-35.016,29.91,29.91,0,0,1,22.288-6.34,29.366,29.366,0,0,1,12.163,4.094c.879.527,1.682,1.182,2.52,1.779.1.154.2.309.3.461a30.068,30.068,0,0,1,4.43,24.417,29.474,29.474,0,0,1-9.676,15.85,30.577,30.577,0,0,1-29.024,6.07,1.5,1.5,0,0,0-.857.011c-2.068.684-4.128,1.394-6.188,2.1q-6.225,2.137-12.448,4.279" transform="translate(-164.784 -203.155)"/><path class="e" d="M184.1,339.525q6.224-2.14,12.448-4.279c2.06-.707,4.12-1.418,6.188-2.1a1.5,1.5,0,0,1,.857-.011,30.577,30.577,0,0,0,29.024-6.07,29.474,29.474,0,0,0,9.676-15.85,30.068,30.068,0,0,0-4.43-24.417c-.1-.152-.2-.308-.3-.461.363.242.729.48,1.089.726.32.22.634.449.951.674l1.607,1.772c0,.054-.021.123,0,.159a28.041,28.041,0,0,1,2.939,5.155A30.531,30.531,0,0,1,204.18,335.29a1.662,1.662,0,0,0-.957-.082q-6.936,1.548-13.861,3.139c-1.535.351-3.065.727-4.6,1.091l-.67.087" transform="translate(-165.681 -257.694)"/><path class="f" d="M190.791,367.972c1.532-.364,3.061-.74,4.6-1.091q6.928-1.583,13.861-3.139a1.663,1.663,0,0,1,.957.082,30.52,30.52,0,0,0,39.973-40.469,28.035,28.035,0,0,0-2.939-5.155c-.026-.035,0-.1,0-.159a3.639,3.639,0,0,1,.422.335,30.519,30.519,0,0,1-37.164,47.566,1.341,1.341,0,0,0-.748-.163c-3,.336-5.988.694-8.981,1.047s-5.986.7-8.98,1.054c-.33.039-.662.061-.993.09" transform="translate(-171.706 -286.228)"/><path class="g" d="M166.993,223.758c.216-1.228.414-2.461.653-3.685.442-2.256.91-4.508,1.365-6.762.414-2.054.817-4.11,1.245-6.161a1.123,1.123,0,0,0-.175-.933,30.387,30.387,0,0,1-4.089-9.121,29.292,29.292,0,0,1-.975-8.522A30.574,30.574,0,0,1,188.5,159.7a29.662,29.662,0,0,1,6.069-.781,31.566,31.566,0,0,1,5.645.329,30.542,30.542,0,0,1,16.423,8.085,3.877,3.877,0,0,1,.312.379,1.967,1.967,0,0,1-.4-.163,31.056,31.056,0,0,0-6.937-3.615,29.809,29.809,0,0,0-8.158-1.775,30.453,30.453,0,0,0-3.981-.006,35.045,35.045,0,0,0-4.1.467,29.168,29.168,0,0,0-9.113,3.291,30.512,30.512,0,0,0-9.331,8,29.78,29.78,0,0,0-4.468,8.044,28.859,28.859,0,0,0-1.73,7.359,35.2,35.2,0,0,0-.105,4.572,33.669,33.669,0,0,0,.46,4.3,28.877,28.877,0,0,0,2.927,8.511,1.091,1.091,0,0,1,.1.741q-2.189,7.158-4.419,14.3c-.211.679-.463,1.344-.7,2.016" transform="translate(-148.495 -143.009)"/><path class="h" d="M184.853,252.431c.233-.671.486-1.337.7-2.016q2.223-7.148,4.419-14.3a1.091,1.091,0,0,0-.1-.741,28.877,28.877,0,0,1-2.927-8.511,33.675,33.675,0,0,1-.46-4.3,35.205,35.205,0,0,1,.105-4.572,28.862,28.862,0,0,1,1.73-7.359,29.782,29.782,0,0,1,4.468-8.044,30.513,30.513,0,0,1,9.331-8,29.168,29.168,0,0,1,9.113-3.291,35.049,35.049,0,0,1,4.1-.467,30.461,30.461,0,0,1,3.981.006,29.809,29.809,0,0,1,8.158,1.775,31.057,31.057,0,0,1,6.937,3.615,1.965,1.965,0,0,0,.4.163l-.011.011.111.1-.009-.01.183.131v0l.108.1a30.2,30.2,0,0,1,4.757,4.431,3.613,3.613,0,0,1,.336.574c-.317-.225-.631-.454-.951-.674-.36-.247-.726-.485-1.089-.726-.838-.6-1.64-1.252-2.52-1.779a29.368,29.368,0,0,0-12.164-4.095,30.56,30.56,0,0,0-33.561,25.41,29.544,29.544,0,0,0,1.684,15.946,1.581,1.581,0,0,1-.032,1.321q-3.3,7.6-6.563,15.225c-.059.136-.132.267-.2.4l-.039-.034q.006-.146.013-.293Z" transform="translate(-166.356 -171.682)"/><path class="h" d="M183.313,810.154l-.213.5.108-.507a.2.2,0,0,0,.066-.024l.039.034" transform="translate(-164.785 -729.084)"/><path class="g" d="M184.248,807.487a.2.2,0,0,1-.066.024l.079-.316q-.006.146-.013.293" transform="translate(-165.758 -726.451)"/><path class="g" d="M685.381,248.14l-.183-.131.183.131" transform="translate(-616.658 -223.201)"/><path class="g" d="M684.295,247.169l-.111-.1.111.1" transform="translate(-615.745 -222.35)"/><path class="g" d="M687.125,249.4l-.108-.1.108.1" transform="translate(-618.295 -224.367)"/></g></g></svg>