<svg xmlns="http://www.w3.org/2000/svg" fill="none" viewBox="0 0 24 24" height="300" width="300"><path fill="#ffffff" d="M17.24 15.891H18.7C18.7 15.891 23 15.33 23 11.108C23.0005 10.4656 22.8712 9.82973 22.6201 9.23845C22.3689 8.64717 22.001 8.11268 21.5383 7.667C21.0756 7.22132 20.5277 6.87363 19.9275 6.64476C19.3272 6.41588 18.6869 6.31054 18.045 6.33503C17.4117 4.99091 16.3487 3.89607 15.0238 3.22345C13.6989 2.55084 12.1877 2.33878 10.7289 2.62078C9.27002 2.90277 7.94671 3.66275 6.96794 4.78067C5.98917 5.89859 5.41074 7.31073 5.324 8.79403C4.80214 8.68429 4.26237 8.69231 3.74401 8.81752C3.22564 8.94274 2.74173 9.18198 2.32751 9.51784C1.91329 9.8537 1.57919 10.2777 1.34954 10.759C1.11989 11.2403 1.00048 11.7668 1 12.3C1 15.945 4.826 15.888 4.826 15.888H17.24V15.891Z"></path><path fill="#E3E3E3" d="M18.7 13.391H4.826C4.826 13.391 1.987 13.433 1.2 11.115C1.06741 11.496 0.999801 11.8965 1 12.3C1 15.945 4.826 15.888 4.826 15.888H18.7C18.7 15.888 23 15.33 23 11.108C22.9999 10.7031 22.9485 10.2999 22.847 9.90796C22.081 12.949 18.7 13.391 18.7 13.391Z"></path><path stroke="#252525" stroke-linecap="round" stroke-linejoin="round" d="M17.24 15.891H18.7C18.7 15.891 23 15.33 23 11.108C23.0005 10.4656 22.8712 9.82973 22.6201 9.23845C22.3689 8.64717 22.001 8.11268 21.5383 7.667C21.0756 7.22132 20.5277 6.87363 19.9275 6.64476C19.3272 6.41588 18.6869 6.31054 18.045 6.33503C17.4117 4.99091 16.3487 3.89607 15.0238 3.22345C13.6989 2.55084 12.1877 2.33878 10.7289 2.62078C9.27002 2.90277 7.94671 3.66275 6.96794 4.78067C5.98917 5.89859 5.41074 7.31073 5.324 8.79403C4.80214 8.68429 4.26237 8.69231 3.74401 8.81752C3.22564 8.94274 2.74173 9.18198 2.32751 9.51784C1.91329 9.8537 1.57919 10.2777 1.34954 10.759C1.11989 11.2403 1.00048 11.7668 1 12.3C1 15.945 4.826 15.888 4.826 15.888H6.732"></path><path stroke="#252525" stroke-linecap="round" stroke-linejoin="round" d="M12 21V11"></path><path stroke="#252525" stroke-linecap="round" stroke-linejoin="round" d="M9 18.391L12 21.391L15 18.391"></path></svg>