<svg xmlns="http://www.w3.org/2000/svg" width="39.446" height="39.45" viewBox="0 0 39.446 39.45"><defs><style>.a{fill:#f4044d;}.b{fill:rgba(255,255,255,0.45);}.c,.d{fill:none;stroke:#fff;stroke-linecap:round;stroke-linejoin:round;}.d{stroke-width:1.5px;}</style></defs><g transform="translate(-1.5 -1.497)"><path class="a" d="M40.445,20.89A19.507,19.507,0,0,1,21.223,40.445,18.938,18.938,0,0,1,2,21.558,19.506,19.506,0,0,1,21.223,2,18.938,18.938,0,0,1,40.445,20.89Z" transform="translate(0 0)"/><path class="b" d="M21.223,8.99A18.833,18.833,0,0,1,40.113,24.717a18.585,18.585,0,0,0,.332-3.827A18.938,18.938,0,0,0,21.223,2,19.506,19.506,0,0,0,2,21.558a19.884,19.884,0,0,0,.329,3.17A19.628,19.628,0,0,1,21.223,8.99Z" transform="translate(0 0)"/><path class="c" d="M40.445,20.89A19.507,19.507,0,0,1,21.223,40.445,18.938,18.938,0,0,1,2,21.558,19.506,19.506,0,0,1,21.223,2,18.938,18.938,0,0,1,40.445,20.89Z" transform="translate(0 0)"/><path class="d" d="M24,26.24V14.008" transform="translate(-2.777 -1.516)"/><path class="d" d="M23.921,32a.43.43,0,0,0-.421.446.444.444,0,0,0,.437.428h0a.43.43,0,0,0,.421-.446A.444.444,0,0,0,23.937,32h-.009" transform="translate(-2.714 -3.788)"/></g></svg>