<svg xmlns="http://www.w3.org/2000/svg" width="77.739" height="77.739" viewBox="0 0 77.739 77.739"><defs><style>.a{fill:#66e1ff;}.b{fill:#e3e3e3;}.c{fill:#fff;}.d,.e{fill:none;stroke-linecap:round;stroke-linejoin:round;}.d{stroke:#fff;}.e{stroke:#002567;}</style></defs><g transform="translate(-0.293 -0.293)"><path class="a" d="M36.526,68.051A31.526,31.526,0,1,0,5,36.526,31.526,31.526,0,0,0,36.526,68.051Z" transform="translate(2.637 2.637)"/><path class="b" d="M50.822,15h-36.5A3.318,3.318,0,0,0,11,18.318V41.548a3.319,3.319,0,0,0,3.318,3.318h36.5a3.319,3.319,0,0,0,3.318-3.318V18.318A3.319,3.319,0,0,0,50.822,15Z" transform="translate(6.592 9.229)"/><path class="c" d="M14.318,15A3.318,3.318,0,0,0,11,18.318V41.548a3.319,3.319,0,0,0,3.318,3.318h3.4L47.583,15Z" transform="translate(6.592 9.229)"/><path class="d" d="M52.6,6.968a38.126,38.126,0,0,0-40.937,0" transform="translate(7.03 0.005)"/><path class="d" d="M43.4,52.6a38.109,38.109,0,0,0,0-40.937" transform="translate(27.952 7.03)"/><path class="d" d="M6.969,11.664a38.11,38.11,0,0,0,0,40.937" transform="translate(0.004 7.03)"/><path class="d" d="M11.664,43.4a38.126,38.126,0,0,0,40.937,0" transform="translate(7.03 27.952)"/><path class="d" d="M52.933,52.933,38,38" transform="translate(24.392 24.392)"/><path class="d" d="M1,52.933,15.933,38" transform="translate(0 24.392)"/><path class="d" d="M52.933,1,38,15.933" transform="translate(24.392 0)"/><path class="d" d="M1,1,15.933,15.933" transform="translate(0 0)"/><path class="e" d="M54.14,18V39.57a3.319,3.319,0,0,1-3.318,3.318h-36.5A3.319,3.319,0,0,1,11,39.57V18" transform="translate(6.592 11.207)"/><path class="e" d="M54.14,19.978V18.318A3.319,3.319,0,0,0,50.822,15h-36.5A3.318,3.318,0,0,0,11,18.318v1.659l18.932,10.8a4.978,4.978,0,0,0,5.276,0Z" transform="translate(6.592 9.229)"/></g></svg>