<svg xmlns="http://www.w3.org/2000/svg" xmlns:xlink="http://www.w3.org/1999/xlink" width="22.65" height="22.647" viewBox="0 0 22.65 22.647"><defs><style>.a{opacity:0.58;fill:url(#a);}.b,.d,.e{fill:none;}.b{stroke:#fff;}.b,.c,.d{stroke-linecap:round;stroke-linejoin:round;}.c,.d,.e{stroke:#ffc400;}.c{fill:url(#b);}</style><linearGradient id="a" x1="0.5" x2="0.523" y2="0.881" gradientUnits="objectBoundingBox"><stop offset="0" stop-color="#fff" stop-opacity="0.502"/><stop offset="1" stop-color="#fff" stop-opacity="0"/></linearGradient><linearGradient id="b" x1="0.5" x2="0.5" y2="1" gradientUnits="objectBoundingBox"><stop offset="0" stop-color="#ffc400" stop-opacity="0.749"/><stop offset="1" stop-color="#ffc400" stop-opacity="0.251"/></linearGradient></defs><g transform="translate(-0.999 -1.005)"><rect class="a" width="14" height="22" rx="7" transform="translate(1.5 1.505)"/><path class="b" d="M12.325,2.465A7.226,7.226,0,0,0,1.5,8.719" transform="translate(0 0)"/><path class="b" d="M30.856,13.387a7.208,7.208,0,0,0-.6-2.887" transform="translate(-14.924 -4.668)"/><path class="b" d="M16.5,46.344a7.136,7.136,0,0,0,1.443-.144" transform="translate(-7.784 -23.192)"/><path class="b" d="M1.5,25.5v2.887a7.216,7.216,0,0,0,4.33,6.62" transform="translate(0 -12.451)"/><path class="b" d="M18.495,15.195V11.827A4.33,4.33,0,0,0,12,8.074" transform="translate(-5.448 -3.108)"/><path class="b" d="M7.5,16.5v7.216a4.32,4.32,0,0,0,4.33,4.33,4.213,4.213,0,0,0,1.443-.241" transform="translate(-3.113 -7.781)"/><path class="b" d="M13.5,22.16a1.443,1.443,0,1,0,2.887,0V14.943a1.443,1.443,0,0,0-2.887,0V17.83" transform="translate(-6.227 -6.224)"/><g transform="translate(14.49 11.606)"><path class="c" d="M35.716,31.5H29.943A1.443,1.443,0,0,0,28.5,32.943v4.33a1.443,1.443,0,0,0,1.443,1.443h5.773a1.443,1.443,0,0,0,1.443-1.443v-4.33A1.443,1.443,0,0,0,35.716,31.5Z" transform="translate(-28.5 -27.17)"/><path class="d" d="M34.387,22.5A2.887,2.887,0,0,0,31.5,25.387V26.83h5.773V25.387A2.887,2.887,0,0,0,34.387,22.5Z" transform="translate(-30.057 -22.5)"/><path class="e" d="M37.121,39.022a.361.361,0,0,1,0-.722" transform="translate(-32.786 -30.699)"/><path class="e" d="M37.51,39.022a.361.361,0,1,0,0-.722" transform="translate(-33.175 -30.699)"/></g></g></svg>