<svg xmlns="http://www.w3.org/2000/svg" xmlns:xlink="http://www.w3.org/1999/xlink" width="22.65" height="22.647" viewBox="0 0 22.65 22.647">
  <defs>
    <linearGradient id="linear-gradient" x1="0.5" x2="0.523" y2="0.881" gradientUnits="objectBoundingBox">
      <stop offset="0" stop-color="#fff"/>
      <stop offset="1" stop-color="#fff" stop-opacity="0"/>
    </linearGradient>
  </defs>
  <g id="identities-color" transform="translate(-0.999 -1.005)">
    <path id="Path_16997" data-name="Path 16997" d="M7,0a7,7,0,0,1,7,7v8A7,7,0,0,1,0,15V7A7,7,0,0,1,7,0Z" transform="translate(1.5 1.505)" opacity="0.75" fill="url(#linear-gradient)"/>
    <path id="Path_16784" data-name="Path 16784" d="M12.325,2.465A7.226,7.226,0,0,0,1.5,8.719" transform="translate(0 0)" fill="none" stroke="#fff" stroke-linecap="round" stroke-linejoin="round" stroke-width="1"/>
    <path id="Path_16785" data-name="Path 16785" d="M30.856,13.387a7.208,7.208,0,0,0-.6-2.887" transform="translate(-14.924 -4.668)" fill="none" stroke="#fff" stroke-linecap="round" stroke-linejoin="round" stroke-width="1"/>
    <path id="Path_16786" data-name="Path 16786" d="M16.5,46.344a7.136,7.136,0,0,0,1.443-.144" transform="translate(-7.784 -23.192)" fill="none" stroke="#fff" stroke-linecap="round" stroke-linejoin="round" stroke-width="1"/>
    <path id="Path_16787" data-name="Path 16787" d="M1.5,25.5v2.887a7.216,7.216,0,0,0,4.33,6.62" transform="translate(0 -12.451)" fill="none" stroke="#fff" stroke-linecap="round" stroke-linejoin="round" stroke-width="1"/>
    <path id="Path_16788" data-name="Path 16788" d="M18.495,15.195V11.827A4.33,4.33,0,0,0,12,8.074" transform="translate(-5.448 -3.108)" fill="none" stroke="#fff" stroke-linecap="round" stroke-linejoin="round" stroke-width="1"/>
    <path id="Path_16789" data-name="Path 16789" d="M7.5,16.5v7.216a4.32,4.32,0,0,0,4.33,4.33,4.213,4.213,0,0,0,1.443-.241" transform="translate(-3.113 -7.781)" fill="none" stroke="#fff" stroke-linecap="round" stroke-linejoin="round" stroke-width="1"/>
    <path id="Path_16790" data-name="Path 16790" d="M13.5,22.16a1.443,1.443,0,1,0,2.887,0V14.943a1.443,1.443,0,0,0-2.887,0V17.83" transform="translate(-6.227 -6.224)" fill="none" stroke="#fff" stroke-linecap="round" stroke-linejoin="round" stroke-width="1"/>
    <g id="Group_222" data-name="Group 222" transform="translate(14.49 11.606)">
      <path id="Path_16791" data-name="Path 16791" d="M35.716,31.5H29.943A1.443,1.443,0,0,0,28.5,32.943v4.33a1.443,1.443,0,0,0,1.443,1.443h5.773a1.443,1.443,0,0,0,1.443-1.443v-4.33A1.443,1.443,0,0,0,35.716,31.5Z" transform="translate(-28.5 -27.17)" fill="#4091ff" stroke="#fff" stroke-linecap="round" stroke-linejoin="round" stroke-width="1"/>
      <path id="Path_16792" data-name="Path 16792" d="M34.387,22.5A2.887,2.887,0,0,0,31.5,25.387V26.83h5.773V25.387A2.887,2.887,0,0,0,34.387,22.5Z" transform="translate(-30.057 -22.5)" fill="none" stroke="#fff" stroke-linecap="round" stroke-linejoin="round" stroke-width="1"/>
      <path id="Path_16793" data-name="Path 16793" d="M37.121,39.022a.361.361,0,0,1,0-.722" transform="translate(-32.786 -30.699)" fill="none" stroke="#fff" stroke-width="1"/>
      <path id="Path_16794" data-name="Path 16794" d="M37.51,39.022a.361.361,0,1,0,0-.722" transform="translate(-33.175 -30.699)" fill="none" stroke="#fff" stroke-width="1"/>
    </g>
  </g>
</svg>
