<svg xmlns="http://www.w3.org/2000/svg" width="31.844" height="40.195" viewBox="0 0 31.844 40.195"><defs><style>.a{fill:#006cfe;}.b{fill:rgba(255,255,255,0.25);}.c,.d{fill:none;stroke:#fff;stroke-linecap:round;stroke-linejoin:round;}.d{stroke-width:1.5px;}</style></defs><g transform="translate(-5.5 -0.626)"><path class="a" d="M36.844,17.4c0,10.67-12.2,20.662-14.9,22.739a.857.857,0,0,1-1.045,0C18.2,38.068,6,28.075,6,17.4,6,8.415,12.431,1.126,21.422,1.126S36.844,8.415,36.844,17.4Z" transform="translate(0 0)"/><path class="b" d="M21.422,1.126C12.431,1.126,6,8.415,6,17.4c0,10.67,12.2,20.664,14.908,22.739a.847.847,0,0,0,.514.171Z" transform="translate(0 0)"/><path class="c" d="M36.844,17.4c0,10.67-12.2,20.664-14.9,22.739a.857.857,0,0,1-1.045,0C18.2,38.067,6,28.075,6,17.4,6,8.415,12.431,1.126,21.422,1.126S36.844,8.415,36.844,17.4Z" transform="translate(0 0)"/><path class="d" d="M23.427,27.121V16.84a1.714,1.714,0,0,0-1.714-1.714H20" transform="translate(-2.005 -2.005)"/><path class="d" d="M20,29.126h6.854" transform="translate(-2.005 -4.01)"/><path class="d" d="M24,10.126a.428.428,0,0,1,.428.428" transform="translate(-2.578 -1.289)"/><path class="d" d="M23.5,10.554a.428.428,0,0,1,.428-.428" transform="translate(-2.506 -1.289)"/><path class="d" d="M23.928,11.054a.428.428,0,0,1-.428-.428" transform="translate(-2.506 -1.361)"/><path class="d" d="M24.428,10.626a.428.428,0,0,1-.428.428" transform="translate(-2.578 -1.361)"/></g></svg>