<svg xmlns="http://www.w3.org/2000/svg" width="36.161" height="24.004" viewBox="0 0 36.161 24.004"><defs><style>.a{fill:#66e1ff;}.b{fill:#c2f3ff;}.c{fill:none;stroke:#002567;stroke-linecap:round;stroke-linejoin:round;}</style></defs><g transform="translate(-4.398 -10.998)"><path class="a" d="M5,20.091c3.752.887,6.838-3.027,6.838-3.027A6.957,6.957,0,0,0,17.3,20.17a7.978,7.978,0,0,0,5.925-3.106h0a5.776,5.776,0,0,0,5,3.106,6.653,6.653,0,0,0,5.47-3.106s2.392,3.851,6.245,2.966V31.267a3.68,3.68,0,0,1-3.68,3.68H8.68A3.68,3.68,0,0,1,5,31.267Z" transform="translate(0 -0.445)"/><path class="b" d="M33.715,17.064a6.653,6.653,0,0,1-5.476,3.106,5.776,5.776,0,0,1-5-3.106h0A7.978,7.978,0,0,1,17.31,20.17a6.957,6.957,0,0,1-5.467-3.106h0S8.752,20.978,5,20.091v7.36c3.752.887,6.838-3.027,6.838-3.027A6.957,6.957,0,0,0,17.3,27.53a7.978,7.978,0,0,0,5.925-3.106h0a5.776,5.776,0,0,0,5,3.106,6.654,6.654,0,0,0,5.47-3.106s2.392,3.851,6.245,2.966V20.03C36.111,20.915,33.715,17.064,33.715,17.064Z" transform="translate(0 -0.445)"/><path class="c" d="M5,20.091c3.752.887,6.838-3.027,6.838-3.027A6.957,6.957,0,0,0,17.3,20.17a7.978,7.978,0,0,0,5.925-3.106,5.776,5.776,0,0,0,5,3.106,6.653,6.653,0,0,0,5.47-3.106s2.392,3.851,6.245,2.966V31.267a3.68,3.68,0,0,1-3.68,3.68H8.68A3.68,3.68,0,0,1,5,31.267Z" transform="translate(0 -0.445)"/><path class="c" d="M5,11.5v19.32A3.68,3.68,0,0,0,8.68,34.5h27.6a3.68,3.68,0,0,0,3.68-3.68v-18.4" transform="translate(0 0)"/><path class="c" d="M39.96,28.03c-3.849.885-6.245-2.966-6.245-2.966a6.654,6.654,0,0,1-5.476,3.106,5.776,5.776,0,0,1-5-3.106A7.978,7.978,0,0,1,17.31,28.17a6.957,6.957,0,0,1-5.461-3.106S8.752,28.978,5,28.091" transform="translate(0 -1.085)"/></g></svg>