<svg xmlns="http://www.w3.org/2000/svg" width="57.713" height="25.531" viewBox="0 0 57.713 25.531">
  <g id="mfa-connected" transform="translate(132.092 -19.935)">
    <g id="mfa-connected-2" data-name="mfa-connected" transform="translate(-127.093 25.687)">
      <g id="Group_229" data-name="Group 229" transform="translate(52.714 10.045)">
        <path id="Path_16927" data-name="Path 16927" d="M195.5,100.3" transform="translate(-195.5 -100.3)" fill="#5e5e5e"/>
      </g>
      <g id="Group_230" data-name="Group 230" transform="translate(42.945 10.045)">
        <path id="Path_16928" data-name="Path 16928" d="M167.3,100.3" transform="translate(-167.3 -100.3)" fill="#5e5e5e"/>
      </g>
      <g id="Group_231" data-name="Group 231" transform="translate(1.479 1.662)">
        <path id="Path_16929" data-name="Path 16929" d="M49.332,87.5a1.625,1.625,0,0,1-1.212-.52,1.715,1.715,0,0,1,0-2.46l7.9-7.9a1.739,1.739,0,0,1,2.46,2.46l-7.9,7.9A1.819,1.819,0,0,1,49.332,87.5Z" transform="translate(-47.6 -76.1)" fill="#00dc5a"/>
      </g>
      <g id="Group_232" data-name="Group 232" transform="translate(1.445 1.697)">
        <path id="Path_16930" data-name="Path 16930" d="M57.165,87.562a1.625,1.625,0,0,1-1.212-.52L48.02,79.179a1.739,1.739,0,0,1,2.46-2.46l7.9,7.9a1.715,1.715,0,0,1,0,2.46A1.794,1.794,0,0,1,57.165,87.562Z" transform="translate(-47.5 -76.2)" fill="#00dc5a"/>
      </g>
      <g id="Group_233" data-name="Group 233" transform="translate(15.682 1.662)">
        <path id="Path_16931" data-name="Path 16931" d="M90.332,87.5a1.625,1.625,0,0,1-1.212-.52,1.715,1.715,0,0,1,0-2.46l7.9-7.9a1.739,1.739,0,0,1,2.46,2.46l-7.9,7.9A1.758,1.758,0,0,1,90.332,87.5Z" transform="translate(-88.6 -76.1)" fill="#00dc5a"/>
      </g>
      <g id="Group_234" data-name="Group 234" transform="translate(15.682 1.697)">
        <path id="Path_16932" data-name="Path 16932" d="M98.23,87.562a1.625,1.625,0,0,1-1.212-.52l-7.9-7.864a1.739,1.739,0,0,1,2.46-2.46l7.9,7.9a1.715,1.715,0,0,1,0,2.46A1.88,1.88,0,0,1,98.23,87.562Z" transform="translate(-88.6 -76.2)" fill="#00dc5a"/>
      </g>
      <path id="Path_16935" data-name="Path 16935" d="M34.3,58.164H56.371a1.732,1.732,0,0,0,0-3.464H34.3a5.411,5.411,0,0,0-5.4,5.4V74.827a5.411,5.411,0,0,0,5.4,5.4H56.371a1.732,1.732,0,0,0,0-3.464H34.3a1.937,1.937,0,0,1-1.94-1.94V60.1A1.937,1.937,0,0,1,34.3,58.164Z" transform="translate(-33.899 -60.452)" fill="#fff" opacity="0.25"/>
    </g>
    <g id="Group_236" data-name="Group 236" transform="translate(-122.696 19.935)">
      <path id="Path_16933" data-name="Path 16933" d="M148.431,42.188V40.441a7.041,7.041,0,1,0-14.083,0v1.747a4.183,4.183,0,0,0-2.849,3.978v8.546a4.2,4.2,0,0,0,4.193,4.193h11.422a4.2,4.2,0,0,0,4.193-4.193V46.166A4.233,4.233,0,0,0,148.431,42.188Zm-7.041-6.074a4.37,4.37,0,0,1,4.354,4.354v1.505h-8.734V40.468A4.393,4.393,0,0,1,141.39,36.114Zm7.229,18.625a1.5,1.5,0,0,1-1.505,1.505H135.693a1.5,1.5,0,0,1-1.505-1.505V46.166a1.5,1.5,0,0,1,1.505-1.505h11.422a1.5,1.5,0,0,1,1.505,1.505Z" transform="translate(-103.926 -33.4)" fill="#23ea00"/>
      <path id="Path_16934" data-name="Path 16934" d="M162.669,89.2h0a2.11,2.11,0,1,0,1.478.645A1.976,1.976,0,0,0,162.669,89.2Z" transform="translate(-125.205 -74.204)" fill="#23ea00"/>
    </g>
    <path id="Path_16936" data-name="Path 16936" d="M151.961,84.3h-9.836a3.234,3.234,0,0,1-3.225-3.225V73.525a3.234,3.234,0,0,1,3.225-3.225h9.836a3.234,3.234,0,0,1,3.225,3.225v7.552A3.234,3.234,0,0,1,151.961,84.3Z" transform="translate(-232.034 -40.449)" fill="#23ea00" opacity="0.16"/>
  </g>
</svg>
