<svg xmlns="http://www.w3.org/2000/svg" width="31.084" height="23.236" viewBox="0 0 31.084 23.236"><defs><style>.a{fill:none;stroke:#fff;stroke-linecap:round;stroke-linejoin:round;}.b{fill:#54d9ff;}.c{fill:#fff;opacity:0.25;}</style></defs><g transform="translate(-0.5 -7)"><path class="a" d="M31,7.5h2.616V29.736H31" transform="translate(-10.38)"/><path class="a" d="M1,24.5H7.54" transform="translate(0 -5.882)"/><path class="b" d="M12.979,28.715A1.3,1.3,0,0,1,11,27.61V11.487a1.3,1.3,0,0,1,1.979-1.105l13.1,8.061a1.3,1.3,0,0,1,0,2.211Z" transform="translate(-3.46 -0.93)"/><path class="c" d="M26.7,19.548a1.3,1.3,0,0,0-.617-1.105l-13.1-8.061A1.3,1.3,0,0,0,11,11.487v8.061Z" transform="translate(-3.46 -0.93)"/><path class="a" d="M12.979,28.715A1.3,1.3,0,0,1,11,27.61V11.487a1.3,1.3,0,0,1,1.979-1.105l13.1,8.061a1.3,1.3,0,0,1,0,2.211Z" transform="translate(-3.46 -0.93)"/><path class="a" d="M35,24.5h7.848" transform="translate(-11.764 -5.882)"/></g></svg>