<svg xmlns="http://www.w3.org/2000/svg" xmlns:xlink="http://www.w3.org/1999/xlink" width="32.445" height="25.592" viewBox="0 0 32.445 25.592"><defs><style>.a,.e{fill:none;}.a{stroke:#fff;}.a,.b,.c,.d{stroke-linecap:round;}.a,.b,.c,.d,.e{stroke-linejoin:round;stroke-miterlimit:8;}.b{fill:#fff;}.b,.c{stroke:#002567;}.c{fill:#006cfe;}.d,.e{stroke:#f4044d;}.d{fill:url(#a);}</style><linearGradient id="a" x1="0.5" x2="0.5" y2="1" gradientUnits="objectBoundingBox"><stop offset="0" stop-color="#f4044d" stop-opacity="0.502"/><stop offset="1" stop-color="#f4044d" stop-opacity="0"/></linearGradient></defs><g transform="translate(-0.9 -0.9)"><g transform="translate(1.4 1.4)"><path class="a" d="M29.487,11.761V3.272A1.92,1.92,0,0,0,27.614,1.4H3.272A1.92,1.92,0,0,0,1.4,3.272V20.125A1.92,1.92,0,0,0,3.272,22h9.737" transform="translate(-1.4 -1.4)"/><circle class="b" cx="2.996" cy="2.996" r="2.996" transform="translate(5.867 3.495)"/><path class="c" d="M7.4,22.918A5.141,5.141,0,0,1,12.518,17.8a5.062,5.062,0,0,1,5.118,5.118Z" transform="translate(-3.655 -7.564)"/><line class="a" x2="5.742" transform="translate(16.852 4.744)"/><line class="a" x2="7.49" transform="translate(16.852 8.488)"/></g><g transform="translate(18.658 16.754)"><path class="d" d="M29.144,30.993a1.066,1.066,0,0,1,0-.874A8.522,8.522,0,0,1,36.134,26a8.829,8.829,0,0,1,6.991,4.119,1.066,1.066,0,0,1,0,.874,8.96,8.96,0,0,1-6.991,4.244A8.96,8.96,0,0,1,29.144,30.993Z" transform="translate(-29.05 -26)"/><line class="e" x1="6.866" y2="7.615" transform="translate(3.714 0.749)"/></g></g></svg>