<svg xmlns="http://www.w3.org/2000/svg" fill="none" viewBox="0 0 24 24" height="24" width="24"><path fill="#E3E3E3" d="M2.25 17.5V9C2.25 6.74566 3.14553 4.58365 4.73959 2.98959C6.33365 1.39553 8.49566 0.5 10.75 0.5C13.0043 0.5 15.1663 1.39553 16.7604 2.98959C18.3545 4.58365 19.25 6.74566 19.25 9C19.25 9.13261 19.1973 9.25979 19.1036 9.35355C19.0098 9.44732 18.8826 9.5 18.75 9.5H16.514C16.444 9.5 16.3768 9.47219 16.3273 9.42268C16.2778 9.37317 16.25 9.30602 16.25 9.236C16.2733 7.84002 15.7796 6.48471 14.864 5.43067C13.9484 4.37663 12.6755 3.69826 11.29 3.526C10.5259 3.45061 9.75439 3.53606 9.02526 3.77685C8.29614 4.01764 7.62551 4.40844 7.05655 4.92408C6.48759 5.43973 6.03291 6.06879 5.72176 6.77078C5.41062 7.47278 5.24992 8.23214 5.25 9V17.5H2.25Z"></path><path fill="#66E1FF" d="M15.5 12.5L14 22H22L20.5 12.5H15.5Z"></path><path fill="#ffffff" d="M10.75 0.5C8.49566 0.5 6.33365 1.39553 4.73959 2.98959C3.14553 4.58365 2.25 6.74566 2.25 9V17.5H3.75V9C3.75 7.14348 4.4875 5.36301 5.80025 4.05025C7.11301 2.7375 8.89348 2 10.75 2C12.6065 2 14.387 2.7375 15.6997 4.05025C17.0125 5.36301 17.75 7.14348 17.75 9L17.76 9.5H18.75C18.8826 9.5 19.0098 9.44732 19.1036 9.35355C19.1973 9.25979 19.25 9.13261 19.25 9C19.25 6.74566 18.3545 4.58365 16.7604 2.98959C15.1663 1.39553 13.0043 0.5 10.75 0.5V0.5Z"></path><path fill="#E3E3E3" d="M6.25 21V23C6.25 23.1326 6.19732 23.2598 6.10355 23.3536C6.00979 23.4473 5.88261 23.5 5.75 23.5H1.75C1.61739 23.5 1.49021 23.4473 1.39645 23.3536C1.30268 23.2598 1.25 23.1326 1.25 23V18C1.25 17.8674 1.30268 17.7402 1.39645 17.6464C1.49021 17.5527 1.61739 17.5 1.75 17.5H5.75C5.88261 17.5 6.00979 17.5527 6.10355 17.6464C6.19732 17.7402 6.25 17.8674 6.25 18V18.5"></path><path stroke="#002567" stroke-linecap="round" stroke-linejoin="round" d="M6.25 21V23C6.25 23.1326 6.19732 23.2598 6.10355 23.3536C6.00979 23.4473 5.88261 23.5 5.75 23.5H1.75C1.61739 23.5 1.49021 23.4473 1.39645 23.3536C1.30268 23.2598 1.25 23.1326 1.25 23V18C1.25 17.8674 1.30268 17.7402 1.39645 17.6464C1.49021 17.5527 1.61739 17.5 1.75 17.5H5.75C5.88261 17.5 6.00979 17.5527 6.10355 17.6464C6.19732 17.7402 6.25 17.8674 6.25 18V18.5"></path><path stroke="#002567" stroke-linecap="round" stroke-linejoin="round" d="M2.25 17.5V9C2.25 6.74566 3.14553 4.58365 4.73959 2.98959C6.33365 1.39553 8.49566 0.5 10.75 0.5C13.0043 0.5 15.1663 1.39553 16.7604 2.98959C18.3545 4.58365 19.25 6.74566 19.25 9C19.25 9.13261 19.1973 9.25979 19.1036 9.35355C19.0098 9.44732 18.8826 9.5 18.75 9.5H16.514C16.444 9.5 16.3768 9.47219 16.3273 9.42268C16.2778 9.37317 16.25 9.30602 16.25 9.236C16.2733 7.84002 15.7796 6.48471 14.864 5.43067C13.9484 4.37663 12.6755 3.69826 11.29 3.526C10.5259 3.45061 9.75439 3.53606 9.02526 3.77685C8.29614 4.01764 7.62551 4.40844 7.05655 4.92408C6.48759 5.43973 6.03291 6.06879 5.72176 6.77078C5.41062 7.47278 5.24992 8.23214 5.25 9V17.5"></path><path fill="gray" stroke="#002567" stroke-linecap="round" stroke-linejoin="round" d="M3.79 19.783C3.54348 19.8809 3.34594 20.0727 3.24082 20.3162C3.13571 20.5597 3.13164 20.835 3.2295 21.0815C3.32737 21.328 3.51915 21.5256 3.76267 21.6307C4.00618 21.7358 4.28148 21.7399 4.528 21.642L8.71 19.981C8.95652 19.8832 9.15406 19.6914 9.25918 19.4479C9.36429 19.2043 9.36837 18.929 9.2705 18.6825C9.17264 18.436 8.98085 18.2385 8.73733 18.1333C8.49382 18.0282 8.21852 18.0242 7.972 18.122L3.79 19.783Z"></path><path stroke="#002567" d="M15.5 13C15.3619 13 15.25 12.8881 15.25 12.75C15.25 12.6119 15.3619 12.5 15.5 12.5"></path><path stroke="#002567" d="M15.5 13C15.6381 13 15.75 12.8881 15.75 12.75C15.75 12.6119 15.6381 12.5 15.5 12.5"></path><path stroke="#002567" d="M18 13C17.8619 13 17.75 12.8881 17.75 12.75C17.75 12.6119 17.8619 12.5 18 12.5"></path><path stroke="#002567" d="M18 13C18.1381 13 18.25 12.8881 18.25 12.75C18.25 12.6119 18.1381 12.5 18 12.5"></path><path stroke="#002567" d="M20.5 13C20.3619 13 20.25 12.8881 20.25 12.75C20.25 12.6119 20.3619 12.5 20.5 12.5"></path><path stroke="#002567" d="M20.5 13C20.6381 13 20.75 12.8881 20.75 12.75C20.75 12.6119 20.6381 12.5 20.5 12.5"></path><path stroke="#002567" d="M21 16C20.8619 16 20.75 15.8881 20.75 15.75C20.75 15.6119 20.8619 15.5 21 15.5"></path><path stroke="#002567" d="M21 16C21.1381 16 21.25 15.8881 21.25 15.75C21.25 15.6119 21.1381 15.5 21 15.5"></path><path stroke="#002567" d="M21.5 19C21.3619 19 21.25 18.8881 21.25 18.75C21.25 18.6119 21.3619 18.5 21.5 18.5"></path><path stroke="#002567" d="M21.5 19C21.6381 19 21.75 18.8881 21.75 18.75C21.75 18.6119 21.6381 18.5 21.5 18.5"></path><path stroke="#002567" d="M22 21.9626C21.8619 21.9626 21.75 21.8507 21.75 21.7126C21.75 21.5745 21.8619 21.4626 22 21.4626"></path><path stroke="#002567" d="M22 21.9626C22.1381 21.9626 22.25 21.8507 22.25 21.7126C22.25 21.5745 22.1381 21.4626 22 21.4626"></path><g><path stroke="#002567" d="M18 22C17.8619 22 17.75 21.8881 17.75 21.75C17.75 21.6119 17.8619 21.5 18 21.5"></path><path stroke="#002567" d="M18 22C18.1381 22 18.25 21.8881 18.25 21.75C18.25 21.6119 18.1381 21.5 18 21.5"></path></g><g><path stroke="#002567" d="M18 19C17.8619 19 17.75 18.8881 17.75 18.75C17.75 18.6119 17.8619 18.5 18 18.5"></path><path stroke="#002567" d="M18 19C18.1381 19 18.25 18.8881 18.25 18.75C18.25 18.6119 18.1381 18.5 18 18.5"></path></g><g><path stroke="#002567" d="M18 16C17.8619 16 17.75 15.8881 17.75 15.75C17.75 15.6119 17.8619 15.5 18 15.5"></path><path stroke="#002567" d="M18 16C18.1381 16 18.25 15.8881 18.25 15.75C18.25 15.6119 18.1381 15.5 18 15.5"></path></g><g><path stroke="#002567" d="M15 16C14.8619 16 14.75 15.8881 14.75 15.75C14.75 15.6119 14.8619 15.5 15 15.5"></path><path stroke="#002567" d="M15 16C15.1381 16 15.25 15.8881 15.25 15.75C15.25 15.6119 15.1381 15.5 15 15.5"></path></g><g><path stroke="#002567" d="M14.5 19C14.3619 19 14.25 18.8881 14.25 18.75C14.25 18.6119 14.3619 18.5 14.5 18.5"></path><path stroke="#002567" d="M14.5 19C14.6381 19 14.75 18.8881 14.75 18.75C14.75 18.6119 14.6381 18.5 14.5 18.5"></path></g><g><path stroke="#002567" d="M14 21.9626C13.8619 21.9626 13.75 21.8507 13.75 21.7126C13.75 21.5745 13.8619 21.4626 14 21.4626"></path><path stroke="#002567" d="M14 21.9626C14.1381 21.9626 14.25 21.8507 14.25 21.7126C14.25 21.5745 14.1381 21.4626 14 21.4626"></path></g></svg>