<?xml version="1.0" encoding="utf-8"?>
<!-- Generator: Adobe Illustrator 26.5.0, SVG Export Plug-In . SVG Version: 6.00 Build 0)  -->
<svg version="1.1" id="Layer_1" xmlns="http://www.w3.org/2000/svg" xmlns:xlink="http://www.w3.org/1999/xlink" x="0px" y="0px"
	 viewBox="0 0 22.3 19.5" style="enable-background:new 0 0 22.3 19.5;" xml:space="preserve">
<style type="text/css">
	.st0{fill:#C2F3FF;}
	.st1{fill:#707070;}
	.st2{fill:#66E1FF;}
	.st3{fill:#FFFFFF;}
	.st4{fill:#FFEF5E;}
	.st5{fill:#006CFE;}
</style>
<g id="Group_221" transform="translate(3 2)">
	<g>
		<g>
			<g>
				<g>
					<g id="Group_220" transform="translate(-3 -2)">
						<g id="Path_16756">
							<path class="st0" d="M9.6,19c4,0,7.2-3.2,7.2-7.2s-3.2-7.2-7.2-7.2s-7.2,3.2-7.2,7.2l0,0C2.4,15.8,5.6,19,9.6,19L9.6,19"/>
							<path class="st1" d="M9.6,19.5c-4.2,0-7.7-3.5-7.7-7.7s3.5-7.7,7.7-7.7s7.7,3.5,7.7,7.7C17.3,16,13.8,19.5,9.6,19.5z
								 M9.6,5.1c-3.7,0-6.7,3-6.7,6.7s3,6.7,6.7,6.7s6.7-3,6.7-6.7S13.3,5.1,9.6,5.1z"/>
						</g>
						<path id="Path_16757" class="st2" d="M14,6.1c1.5,3.7-0.2,7.9-3.8,9.4c-2.4,1-5.2,0.6-7.2-1c1.5,3.7,5.8,5.4,9.4,3.8
							c3.7-1.5,5.4-5.8,3.8-9.4C15.7,7.9,15,6.9,14,6.1"/>
						<g id="Ellipse_41">
							<path class="st3" d="M9.6,19.5c-4.2,0-7.7-3.5-7.7-7.7s3.5-7.7,7.7-7.7s7.7,3.5,7.7,7.7C17.3,16,13.8,19.5,9.6,19.5z
								 M9.6,5.1c-3.7,0-6.7,3-6.7,6.7s3,6.7,6.7,6.7s6.7-3,6.7-6.7S13.3,5.1,9.6,5.1z"/>
						</g>
						<path id="Path_16758" class="st4" d="M15.3,8.4c-0.7,0.4-1.5,0.8-2.4,1c0.2-0.8,0.6-1.6,1-2.4c0.4-0.4,1-0.3,1.4,0
							C15.6,7.5,15.6,8,15.3,8.4"/>
						<g id="Path_16759">
							<path class="st3" d="M12.9,9.9c-0.1,0-0.3-0.1-0.4-0.1c-0.1-0.1-0.2-0.3-0.1-0.5c0.3-0.9,0.6-1.7,1.1-2.5l0.1-0.1
								c0.3-0.3,0.7-0.4,1-0.4c0.4,0,0.8,0.2,1,0.5c0.5,0.6,0.5,1.4,0,2l-0.1,0.1C14.7,9.3,13.9,9.7,13,10C13,9.9,12.9,9.9,12.9,9.9
								z M14.3,7.4c-0.2,0.4-0.4,0.8-0.6,1.2c0.4-0.2,0.8-0.4,1.2-0.6c0.1-0.2,0.1-0.4,0-0.6c-0.1-0.1-0.2-0.1-0.3-0.1
								C14.5,7.3,14.4,7.3,14.3,7.4z M15.3,8.4L15.3,8.4L15.3,8.4z"/>
						</g>
						<path id="Path_16760" class="st5" d="M21.9,0.7c0.1-0.2,0-0.4-0.3-0.3L20.1,1c-0.3,0.1-0.5,0.3-0.8,0.5l-1.4,1.4l-0.2-0.1
							c-1.1-0.3-2.3,0-3.2,0.8L14.2,4l1.4,1.4L17,6.7l1.4,1.4l0.3-0.3c0.8-0.9,1.1-2.1,0.8-3.2l-0.1-0.2L20.8,3
							c0.1-0.3,0.3-0.5,0.4-0.8L21.9,0.7z"/>
						<g id="Path_16761">
							<path class="st3" d="M18.3,8.6c-0.1,0-0.3-0.1-0.4-0.1l-4.1-4.1c-0.1-0.1-0.1-0.2-0.1-0.4c0-0.2,0.1-0.3,0.1-0.4l0.4-0.3
								c1-0.9,2.3-1.2,3.6-0.9l1.1-1.1c0.3-0.3,0.6-0.5,0.9-0.6l1.5-0.6c0.4-0.2,0.7,0,0.8,0.1c0.1,0.1,0.3,0.4,0.1,0.8l0,0
								l-0.6,1.5c-0.2,0.3-0.4,0.7-0.6,0.9l-1.2,1.2c0.3,1.3,0,2.6-0.9,3.6l-0.4,0.4C18.6,8.5,18.4,8.6,18.3,8.6L18.3,8.6z M14.9,4
								l3.4,3.4c0.6-0.8,0.9-1.8,0.6-2.7l-0.1-0.2c-0.1-0.2,0-0.4,0.1-0.5l1.4-1.4c0.2-0.2,0.3-0.4,0.4-0.6L21,1.2l-0.8,0.3
								c-0.2,0.1-0.4,0.3-0.6,0.4l-1.3,1.3c-0.1,0.1-0.3,0.2-0.5,0.1l-0.2-0.1C16.7,3.1,15.7,3.4,14.9,4z M21.9,0.7l-0.5-0.2l0,0
								L21.9,0.7l-0.5-0.2L21.9,0.7z"/>
						</g>
						<g id="Path_16762">
							<path class="st3" d="M1.4,19.2c-0.4,0-0.8-0.1-1-0.4c-0.9-0.9-0.3-2.8,1.8-5.7c0.2-0.2,0.5-0.3,0.7-0.1s0.3,0.5,0.1,0.7
								c-2.1,3-2.1,4.2-1.9,4.4c0.6,0.6,4.5-1.2,10-6.7c0.2-0.2,0.5-0.2,0.7,0s0.2,0.5,0,0.7C8.1,15.8,3.7,19.2,1.4,19.2z"/>
						</g>
						<g id="Path_16763">
							<path class="st3" d="M9.6,19.5c-1.5,0-2.9-0.4-4.2-1.3c-1.7-1.1-2.9-2.9-3.3-4.9c-0.9-4.2,1.8-8.2,6-9.1
								c1.5-0.3,3.1-0.2,4.6,0.5C13,4.8,13.1,5.1,13,5.4c-0.3,0.2-0.6,0.3-0.8,0.2c-1.3-0.5-2.6-0.7-4-0.4C6.4,5.6,4.9,6.6,4,8.1
								c-1,1.5-1.3,3.3-1,5c0.4,1.8,1.4,3.3,2.9,4.2s3.3,1.3,5,1c1.8-0.4,3.3-1.4,4.2-2.9c1-1.5,1.3-3.3,1-5
								c-0.1-0.3,0.1-0.5,0.4-0.6s0.5,0.1,0.6,0.4c0.4,2,0,4.1-1.1,5.8s-2.9,2.9-4.9,3.3C10.6,19.4,10.1,19.5,9.6,19.5z"/>
						</g>
					</g>
				</g>
			</g>
		</g>
	</g>
</g>
</svg>
