<?xml version="1.0" encoding="utf-8"?>
<!-- Generator: Adobe Illustrator 26.5.0, SVG Export Plug-In . SVG Version: 6.00 Build 0)  -->
<svg version="1.1" id="Layer_1" xmlns="http://www.w3.org/2000/svg" xmlns:xlink="http://www.w3.org/1999/xlink" x="0px" y="0px"
	 viewBox="0 0 22.4 19.6" style="enable-background:new 0 0 22.4 19.6;" xml:space="preserve">
<style type="text/css">
	.st0{fill:url(#SVGID_1_);}
	.st1{fill:none;stroke:#FFFFFF;stroke-linecap:round;stroke-linejoin:round;}
	.st2{fill:#FFEF5E;}
	.st3{fill:#FFFFFF;stroke:#FFFFFF;stroke-linecap:round;stroke-linejoin:round;}
	.st4{fill:url(#SVGID_00000119110892819922098170000004450910490477085312_);}
</style>
<g transform="translate(3 2)">
	<g>
		<g>
			<g transform="translate(-3 -2)">
				
					<linearGradient id="SVGID_1_" gradientUnits="userSpaceOnUse" x1="-1815.7706" y1="70.8211" x2="-1815.7706" y2="71.8211" gradientTransform="matrix(14.4 0 0 14.4 26156.6504 -1015.1462)">
					<stop  offset="0" style="stop-color:#FFFFFF;stop-opacity:0.749"/>
					<stop  offset="1" style="stop-color:#FFFFFF;stop-opacity:0.251"/>
				</linearGradient>
				<path class="st0" d="M9.6,19c4,0,7.2-3.2,7.2-7.2s-3.2-7.2-7.2-7.2s-7.2,3.2-7.2,7.2l0,0C2.4,15.8,5.6,19,9.6,19L9.6,19"/>
				<circle class="st1" cx="9.6" cy="11.8" r="7.2"/>
				<path class="st2" d="M15.3,8.5c-0.7,0.4-1.5,0.8-2.4,1c0.2-0.8,0.6-1.6,1-2.4c0.4-0.4,1-0.3,1.4,0C15.7,7.5,15.7,8.1,15.3,8.5"
					/>
				<path class="st3" d="M15.3,8.5c-0.7,0.4-1.5,0.8-2.4,1c0.2-0.8,0.6-1.6,1-2.4c0.4-0.4,1-0.3,1.4,0C15.7,7.5,15.7,8.1,15.3,8.5
					L15.3,8.5z"/>
				
					<linearGradient id="SVGID_00000180354932120835051060000009785477656505462937_" gradientUnits="userSpaceOnUse" x1="-1696.7769" y1="135.284" x2="-1696.7769" y2="136.284" gradientTransform="matrix(7.6608 0 0 7.6567 13016.6895 -1035.3445)">
					<stop  offset="0" style="stop-color:#FFFFFF;stop-opacity:0.749"/>
					<stop  offset="1" style="stop-color:#FFFFFF;stop-opacity:0.251"/>
				</linearGradient>
				<path style="fill:url(#SVGID_00000180354932120835051060000009785477656505462937_);" d="M21.9,0.8c0.1-0.2,0-0.4-0.3-0.3
					l-1.5,0.6c-0.3,0.1-0.5,0.3-0.8,0.5L17.9,3l-0.2-0.1c-1.1-0.3-2.3,0-3.2,0.8L14.2,4l1.4,1.4L17,6.8l1.4,1.4l0.3-0.3
					c0.8-1,1.1-2.2,0.8-3.3l-0.1-0.2L20.8,3c0.2-0.2,0.4-0.5,0.5-0.8L21.9,0.8z"/>
				<path class="st1" d="M21.9,0.8c0.1-0.2,0-0.4-0.3-0.3l-1.5,0.6c-0.3,0.1-0.5,0.3-0.8,0.5L17.9,3l-0.2-0.1
					c-1.1-0.3-2.3,0-3.2,0.8L14.2,4l1.4,1.4L17,6.8l1.4,1.4l0.3-0.3c0.8-1,1.1-2.2,0.8-3.3l-0.1-0.2L20.8,3c0.2-0.2,0.4-0.5,0.5-0.8
					L21.9,0.8z"/>
				<path class="st1" d="M11.5,11.9c-4.8,4.8-9.6,7.8-10.7,6.7c-0.7-0.7,0.1-2.6,1.8-5"/>
				<path class="st1" d="M16.7,10.4c0.8,3.9-1.7,7.7-5.6,8.5s-7.7-1.7-8.5-5.6s1.7-7.7,5.6-8.5c1.4-0.3,2.9-0.2,4.3,0.4"/>
			</g>
		</g>
	</g>
</g>
</svg>
