<svg xmlns="http://www.w3.org/2000/svg" xmlns:xlink="http://www.w3.org/1999/xlink" width="62.833" height="75.851" viewBox="0 0 62.833 75.851"><defs><style>.a{fill:#66e1ff;}.b{fill:#c2f3ff;}.c{fill:#e3e3e3;}.d{fill:none;stroke:#002567;stroke-linecap:round;stroke-linejoin:round;}.e{fill:url(#a);}.f{fill:url(#b);}.g{fill:url(#c);}.h{fill:#006cfe;}.i{fill:rgba(255,255,255,0.25);}</style><linearGradient id="a" x1="0.137" y1="0.577" x2="1.038" y2="0.564" gradientUnits="objectBoundingBox"><stop offset="0" stop-color="#fff" stop-opacity="0"/><stop offset="1" stop-color="#fff" stop-opacity="0.749"/></linearGradient><linearGradient id="b" x1="0.107" y1="0.5" x2="0.962" y2="0.5" gradientUnits="objectBoundingBox"><stop offset="0" stop-color="#fff" stop-opacity="0.749"/><stop offset="1" stop-color="#fff" stop-opacity="0"/></linearGradient><linearGradient id="c" x1="0.5" y1="0" x2="0.5" y2="1" xlink:href="#a"/></defs><g transform="translate(-4.5 -0.5)"><path class="a" d="M66.833,20.429V72.6a3.254,3.254,0,0,1-3.254,3.254H8.254A3.254,3.254,0,0,1,5,72.6V4.254A3.254,3.254,0,0,1,8.254,1H47.4a17.008,17.008,0,0,1,3.157.293V14.018a3.254,3.254,0,0,0,3.254,3.254H66.54a17.009,17.009,0,0,1,.293,3.157Z" transform="translate(0 0)"/><path class="b" d="M51.7,16.491,5,63.224V4.254A3.254,3.254,0,0,1,8.254,1H47.4a17.008,17.008,0,0,1,3.157.293V14.018A3.354,3.354,0,0,0,51.7,16.491Z" transform="translate(0 0)"/><path class="c" d="M48.979,17.159H36.254A3.254,3.254,0,0,1,33,13.9V1.18A19.275,19.275,0,0,1,48.979,17.159Z" transform="translate(17.561 0.113)"/><path class="d" d="M63.579,75.851A3.254,3.254,0,0,0,66.833,72.6V20.455A19.445,19.445,0,0,0,47.388,1H8.254A3.254,3.254,0,0,0,5,4.254V72.6a3.254,3.254,0,0,0,3.254,3.254Z" transform="translate(0 0)"/><path class="d" d="M43.577,6.6A19.441,19.441,0,0,0,33,1.168V13.912a3.254,3.254,0,0,0,3.254,3.254H49.012A19.46,19.46,0,0,0,43.577,6.6Z" transform="translate(17.561 0.105)"/><g transform="translate(13.897 18.395)"><rect class="e" width="6.997" height="3.498" transform="translate(0.309 20.271)"/><rect class="f" width="8.746" height="3.498" transform="translate(35.294 20.271)"/><rect class="g" width="5.248" height="6.997" transform="translate(19.551 1.029)"/><rect class="g" width="5.248" height="6.997" transform="translate(24.798 43.011) rotate(180)"/><path class="d" d="M10.007,26H2" transform="translate(-2 -1.978)"/><path class="d" d="M2,22h8.007" transform="translate(-2 -1.982)"/><path class="d" d="M38,22h8.007" transform="translate(-1.967 -1.982)"/><path class="d" d="M46.007,26H38" transform="translate(-1.967 -1.978)"/><path class="d" d="M26,10.007V2" transform="translate(-1.978 -2)"/><path class="d" d="M22,2v8.007" transform="translate(-1.982 -2)"/><path class="d" d="M22,38v8.007" transform="translate(-1.982 -1.967)"/><path class="d" d="M26,46.007V38" transform="translate(-1.978 -1.967)"/><path class="h" d="M28.016,38.025a2,2,0,0,0,2-2v-4a2,2,0,0,1,2-2h4a2,2,0,0,0,2-2V20.009a2,2,0,0,0-2-2h-4a2,2,0,0,1-2-2V12a2,2,0,0,0-2-2H20.009a2,2,0,0,0-2,2v4a2,2,0,0,1-2,2H12a2,2,0,0,0-2,2v8.007a2,2,0,0,0,2,2h4a2,2,0,0,1,2,2v4a2,2,0,0,0,2,2Z" transform="translate(-1.993 -1.993)"/><path class="i" d="M38.025,22.011v-2a2,2,0,0,0-2-2h-4a2,2,0,0,1-2-2V12a2,2,0,0,0-2-2H20.009a2,2,0,0,0-2,2v4a2,2,0,0,1-2,2H12a2,2,0,0,0-2,2v2Z" transform="translate(-1.993 -1.993)"/><path class="d" d="M28.016,38.025a2,2,0,0,0,2-2v-4a2,2,0,0,1,2-2h4a2,2,0,0,0,2-2V20.009a2,2,0,0,0-2-2h-4a2,2,0,0,1-2-2V12a2,2,0,0,0-2-2H20.009a2,2,0,0,0-2,2v4a2,2,0,0,1-2,2H12a2,2,0,0,0-2,2v8.007a2,2,0,0,0,2,2h4a2,2,0,0,1,2,2v4a2,2,0,0,0,2,2Z" transform="translate(-1.993 -1.993)"/></g></g></svg>