<?xml version="1.0" encoding="utf-8"?>
<!-- Generator: Adobe Illustrator 27.0.1, SVG Export Plug-In . SVG Version: 6.00 Build 0)  -->
<svg version="1.1" id="Layer_1" xmlns="http://www.w3.org/2000/svg" xmlns:xlink="http://www.w3.org/1999/xlink" x="0px" y="0px"
	 viewBox="0 0 26.2 26.2" style="enable-background:new 0 0 26.2 26.2;" xml:space="preserve">
<style type="text/css">
	.st0{fill:url(#Rectangle_166_00000172418947107450620850000001511951265618562701_);}
	.st1{fill:url(#Rectangle_167_00000072988571092029942020000005643248182754074538_);}
	.st2{fill:url(#Rectangle_168_00000151528763099784444800000017200762762440103316_);}
	.st3{fill:url(#Rectangle_169_00000151512761022026646220000004166979106255827646_);}
	.st4{fill:none;stroke:#FFFFFF;stroke-linecap:round;stroke-linejoin:round;}
	.st5{fill:#F4044D;}
	.st6{opacity:0.25;fill:#FFFFFF;enable-background:new    ;}
</style>
<g id="Services-Color" transform="translate(-1.5 -1.5)">
	
		<linearGradient id="Rectangle_166_00000181048038667664527280000015143389498044621246_" gradientUnits="userSpaceOnUse" x1="-2306.9548" y1="1187.4756" x2="-2306.0537" y2="1187.4626" gradientTransform="matrix(4 0 0 2 9230.541 -2360.3406)">
		<stop  offset="0" style="stop-color:#FFFFFF;stop-opacity:0"/>
		<stop  offset="1" style="stop-color:#FFFFFF;stop-opacity:0.749"/>
	</linearGradient>
	
		<rect id="Rectangle_166" x="2.2" y="13.6" style="fill:url(#Rectangle_166_00000181048038667664527280000015143389498044621246_);" width="4" height="2"/>
	
		<linearGradient id="Rectangle_167_00000028288702736034813090000002153322805986177454_" gradientUnits="userSpaceOnUse" x1="-2421.3899" y1="1187.4702" x2="-2420.5349" y2="1187.4702" gradientTransform="matrix(5 0 0 2 12129.6621 -2360.3406)">
		<stop  offset="0" style="stop-color:#FFFFFF;stop-opacity:0.749"/>
		<stop  offset="1" style="stop-color:#FFFFFF;stop-opacity:0"/>
	</linearGradient>
	
		<rect id="Rectangle_167" x="22.2" y="13.6" style="fill:url(#Rectangle_167_00000028288702736034813090000002153322805986177454_);" width="5" height="2"/>
	
		<linearGradient id="Rectangle_168_00000005264872818666196290000015440041949113568648_" gradientUnits="userSpaceOnUse" x1="-2115.9065" y1="852.8035" x2="-2115.9065" y2="853.8035" gradientTransform="matrix(3 0 0 4 6362.4189 -3408.626)">
		<stop  offset="0" style="stop-color:#FFFFFF;stop-opacity:0"/>
		<stop  offset="1" style="stop-color:#FFFFFF;stop-opacity:0.749"/>
	</linearGradient>
	
		<rect id="Rectangle_168" x="13.2" y="2.6" style="fill:url(#Rectangle_168_00000005264872818666196290000015440041949113568648_);" width="3" height="4"/>
	
		<linearGradient id="Rectangle_169_00000112610980481389848640000001747681150217232063_" gradientUnits="userSpaceOnUse" x1="-3641.3359" y1="184.4821" x2="-3641.3359" y2="185.4821" gradientTransform="matrix(-3 0 0 -4 -10909.3076 764.5166)">
		<stop  offset="0" style="stop-color:#FFFFFF;stop-opacity:0"/>
		<stop  offset="1" style="stop-color:#FFFFFF;stop-opacity:0.749"/>
	</linearGradient>
	
		<rect id="Rectangle_169" x="13.2" y="22.6" style="fill:url(#Rectangle_169_00000112610980481389848640000001747681150217232063_);" width="3" height="4"/>
	<path id="Path_16795" class="st4" d="M6.6,15.7H2"/>
	<path id="Path_16796" class="st4" d="M2,13.4h4.6"/>
	<path id="Path_16797" class="st4" d="M22.6,13.4h4.6"/>
	<path id="Path_16798" class="st4" d="M27.2,15.7h-4.6"/>
	<path id="Path_16799" class="st4" d="M15.7,6.6V2"/>
	<path id="Path_16800" class="st4" d="M13.4,2v4.6"/>
	<path id="Path_16801" class="st4" d="M13.4,22.6v4.6"/>
	<path id="Path_16802" class="st4" d="M15.7,27.2v-4.6"/>
	<path id="Path_16803" class="st5" d="M16.9,22.6c0.6,0,1.1-0.5,1.1-1.1l0,0v-2.3c0-0.6,0.5-1.1,1.1-1.1l0,0h2.3
		c0.6,0,1.1-0.5,1.1-1.1l0,0v-4.6c0-0.6-0.5-1.1-1.1-1.1l0,0h-2.3c-0.6,0-1.1-0.5-1.1-1.1V7.7c0-0.6-0.5-1.1-1.1-1.1l0,0h-4.6
		c-0.6,0-1.1,0.5-1.1,1.1l0,0V10c0,0.6-0.5,1.1-1.1,1.1l0,0H7.7c-0.6,0-1.1,0.5-1.1,1.1l0,0v4.6c0,0.6,0.5,1.1,1.1,1.1l0,0H10
		c0.6,0,1.1,0.5,1.1,1.1l0,0v2.3c0,0.6,0.5,1.1,1.1,1.1L16.9,22.6z"/>
	<path id="Path_16804" class="st6" d="M22.6,13.4v-1.1c0-0.6-0.5-1.1-1.1-1.1l0,0h-2.3c-0.6,0-1.1-0.5-1.1-1.1V7.7
		c0-0.6-0.5-1.1-1.1-1.1l0,0h-4.6c-0.6,0-1.1,0.5-1.1,1.1l0,0V10c0,0.6-0.5,1.1-1.1,1.1l0,0H7.7c-0.6,0-1.1,0.5-1.1,1.1l0,0v1.1
		L22.6,13.4z"/>
	<path id="Path_16805" class="st4" d="M16.9,22.6c0.6,0,1.1-0.5,1.1-1.1l0,0v-2.3c0-0.6,0.5-1.1,1.1-1.1l0,0h2.3
		c0.6,0,1.1-0.5,1.1-1.1l0,0v-4.6c0-0.6-0.5-1.1-1.1-1.1l0,0h-2.3c-0.6,0-1.1-0.5-1.1-1.1V7.7c0-0.6-0.5-1.1-1.1-1.1l0,0h-4.6
		c-0.6,0-1.1,0.5-1.1,1.1l0,0V10c0,0.6-0.5,1.1-1.1,1.1l0,0H7.7c-0.6,0-1.1,0.5-1.1,1.1l0,0v4.6c0,0.6,0.5,1.1,1.1,1.1l0,0H10
		c0.6,0,1.1,0.5,1.1,1.1l0,0v2.3c0,0.6,0.5,1.1,1.1,1.1L16.9,22.6z"/>
</g>
</svg>
