<?xml version="1.0" encoding="utf-8"?>
<!-- Generator: Adobe Illustrator 26.5.0, SVG Export Plug-In . SVG Version: 6.00 Build 0)  -->
<svg version="1.1" id="Layer_1" xmlns="http://www.w3.org/2000/svg" xmlns:xlink="http://www.w3.org/1999/xlink" x="0px" y="0px"
	 viewBox="0 0 26.2 26.2" style="enable-background:new 0 0 26.2 26.2;" xml:space="preserve">
<style type="text/css">
	.st0{fill:url(#Rectangle_166_00000005977658762755235920000014894162223325849768_);}
	.st1{fill:url(#Rectangle_167_00000057860660239281315890000002863889502439866017_);}
	.st2{fill:url(#Rectangle_168_00000108990405582954851720000016961757290986018747_);}
	.st3{fill:url(#Rectangle_169_00000027590162518015102320000007335029656050823848_);}
	.st4{fill:none;stroke:#FFFFFF;stroke-linecap:round;stroke-linejoin:round;}
	.st5{fill:#006CFE;}
	.st6{opacity:0.25;fill:#FFFFFF;}
</style>
<g id="Services-Color" transform="translate(-1.5 -1.5)">
	
		<linearGradient id="Rectangle_166_00000172436267699719259720000009356106122594937228_" gradientUnits="userSpaceOnUse" x1="-878.9549" y1="441.0305" x2="-878.0539" y2="441.0435" gradientTransform="matrix(4 0 0 -2 3518.5405 896.6595)">
		<stop  offset="0" style="stop-color:#FFFFFF;stop-opacity:0"/>
		<stop  offset="1" style="stop-color:#FFFFFF;stop-opacity:0.749"/>
	</linearGradient>
	
		<rect id="Rectangle_166" x="2.2" y="13.6" style="fill:url(#Rectangle_166_00000172436267699719259720000009356106122594937228_);" width="4" height="2"/>
	
		<linearGradient id="Rectangle_167_00000150065110345310433560000012956980812913694136_" gradientUnits="userSpaceOnUse" x1="-898.0899" y1="441.0358" x2="-897.2349" y2="441.0358" gradientTransform="matrix(5 0 0 -2 4513.1616 896.6595)">
		<stop  offset="0" style="stop-color:#FFFFFF;stop-opacity:0.749"/>
		<stop  offset="1" style="stop-color:#FFFFFF;stop-opacity:0"/>
	</linearGradient>
	
		<rect id="Rectangle_167" x="22.2" y="13.6" style="fill:url(#Rectangle_167_00000150065110345310433560000012956980812913694136_);" width="5" height="2"/>
	
		<linearGradient id="Rectangle_168_00000158742720079861577670000013439295323343433102_" gradientUnits="userSpaceOnUse" x1="-846.7474" y1="509.1965" x2="-846.7474" y2="508.1965" gradientTransform="matrix(3 0 0 -4 2554.9192 2039.3739)">
		<stop  offset="0" style="stop-color:#FFFFFF;stop-opacity:0"/>
		<stop  offset="1" style="stop-color:#FFFFFF;stop-opacity:0.749"/>
	</linearGradient>
	
		<rect id="Rectangle_168" x="13.2" y="2.6" style="fill:url(#Rectangle_168_00000158742720079861577670000013439295323343433102_);" width="3" height="4"/>
	
		<linearGradient id="Rectangle_169_00000157295274524013823870000005515308701778909876_" gradientUnits="userSpaceOnUse" x1="-1101.4949" y1="644.5179" x2="-1101.4949" y2="643.5179" gradientTransform="matrix(-3 0 0 4 -3289.8076 -2551.4834)">
		<stop  offset="0" style="stop-color:#FFFFFF;stop-opacity:0"/>
		<stop  offset="1" style="stop-color:#FFFFFF;stop-opacity:0.749"/>
	</linearGradient>
	
		<rect id="Rectangle_169" x="13.2" y="22.6" style="fill:url(#Rectangle_169_00000157295274524013823870000005515308701778909876_);" width="3" height="4"/>
	<path id="Path_16795" class="st4" d="M6.6,15.7H2"/>
	<path id="Path_16796" class="st4" d="M2,13.4h4.6"/>
	<path id="Path_16797" class="st4" d="M22.6,13.4h4.6"/>
	<path id="Path_16798" class="st4" d="M27.2,15.7h-4.6"/>
	<path id="Path_16799" class="st4" d="M15.7,6.6V2"/>
	<path id="Path_16800" class="st4" d="M13.4,2v4.6"/>
	<path id="Path_16801" class="st4" d="M13.4,22.6v4.6"/>
	<path id="Path_16802" class="st4" d="M15.7,27.2v-4.6"/>
	<path id="Path_16803" class="st5" d="M16.9,22.6c0.6,0,1.1-0.5,1.1-1.1v0v-2.3c0-0.6,0.5-1.1,1.1-1.1l0,0h2.3
		c0.6,0,1.1-0.5,1.1-1.1c0,0,0,0,0,0v-4.6c0-0.6-0.5-1.1-1.1-1.1c0,0,0,0,0,0h-2.3c-0.6,0-1.1-0.5-1.1-1.1V7.7
		c0-0.6-0.5-1.1-1.1-1.1c0,0,0,0,0,0h-4.6c-0.6,0-1.1,0.5-1.1,1.1l0,0V10c0,0.6-0.5,1.1-1.1,1.1l0,0H7.7c-0.6,0-1.1,0.5-1.1,1.1
		c0,0,0,0,0,0v4.6c0,0.6,0.5,1.1,1.1,1.1h0H10c0.6,0,1.1,0.5,1.1,1.1c0,0,0,0,0,0v2.3c0,0.6,0.5,1.1,1.1,1.1L16.9,22.6z"/>
	<path id="Path_16804" class="st6" d="M22.6,13.4v-1.1c0-0.6-0.5-1.1-1.1-1.1c0,0,0,0,0,0h-2.3c-0.6,0-1.1-0.5-1.1-1.1V7.7
		c0-0.6-0.5-1.1-1.1-1.1c0,0,0,0,0,0h-4.6c-0.6,0-1.1,0.5-1.1,1.1l0,0V10c0,0.6-0.5,1.1-1.1,1.1l0,0H7.7c-0.6,0-1.1,0.5-1.1,1.1
		c0,0,0,0,0,0v1.1L22.6,13.4z"/>
	<path id="Path_16805" class="st4" d="M16.9,22.6c0.6,0,1.1-0.5,1.1-1.1v0v-2.3c0-0.6,0.5-1.1,1.1-1.1l0,0h2.3
		c0.6,0,1.1-0.5,1.1-1.1c0,0,0,0,0,0v-4.6c0-0.6-0.5-1.1-1.1-1.1c0,0,0,0,0,0h-2.3c-0.6,0-1.1-0.5-1.1-1.1V7.7
		c0-0.6-0.5-1.1-1.1-1.1c0,0,0,0,0,0h-4.6c-0.6,0-1.1,0.5-1.1,1.1l0,0V10c0,0.6-0.5,1.1-1.1,1.1l0,0H7.7c-0.6,0-1.1,0.5-1.1,1.1
		c0,0,0,0,0,0v4.6c0,0.6,0.5,1.1,1.1,1.1h0H10c0.6,0,1.1,0.5,1.1,1.1c0,0,0,0,0,0v2.3c0,0.6,0.5,1.1,1.1,1.1L16.9,22.6z"/>
</g>
</svg>
