<svg xmlns="http://www.w3.org/2000/svg" xmlns:xlink="http://www.w3.org/1999/xlink" width="26.177" height="26.177" viewBox="0 0 26.177 26.177"><defs><style>.a{fill:url(#a);}.b{fill:url(#b);}.c{fill:url(#c);}.d{fill:none;stroke:#fff;stroke-linecap:round;stroke-linejoin:round;}.e{fill:url(#e);}.f{fill:rgba(255,255,255,0.25);}</style><linearGradient id="a" x1="0.137" y1="0.577" x2="1.038" y2="0.564" gradientUnits="objectBoundingBox"><stop offset="0" stop-color="#fff" stop-opacity="0"/><stop offset="1" stop-color="#fff" stop-opacity="0.749"/></linearGradient><linearGradient id="b" x1="0.107" y1="0.5" x2="0.962" y2="0.5" gradientUnits="objectBoundingBox"><stop offset="0" stop-color="#fff" stop-opacity="0.749"/><stop offset="1" stop-color="#fff" stop-opacity="0"/></linearGradient><linearGradient id="c" x1="0.5" y1="0" x2="0.5" y2="1" xlink:href="#a"/><linearGradient id="e" x1="0.5" x2="0.5" y2="1" gradientUnits="objectBoundingBox"><stop offset="0" stop-color="#fff" stop-opacity="0.749"/><stop offset="1" stop-color="#fff" stop-opacity="0.251"/></linearGradient></defs><g transform="translate(-1.5 -1.5)"><rect class="a" width="4" height="2" transform="translate(2.177 13.588)"/><rect class="b" width="5" height="2" transform="translate(22.177 13.588)"/><rect class="c" width="3" height="4" transform="translate(13.177 2.588)"/><rect class="c" width="3" height="4" transform="translate(16.177 26.588) rotate(180)"/><path class="d" d="M6.578,26H2" transform="translate(0 -10.267)"/><path class="d" d="M2,22H6.578" transform="translate(0 -8.556)"/><path class="d" d="M38,22h4.578" transform="translate(-15.401 -8.556)"/><path class="d" d="M42.578,26H38" transform="translate(-15.401 -10.267)"/><path class="d" d="M26,6.578V2" transform="translate(-10.267)"/><path class="d" d="M22,2V6.578" transform="translate(-8.556)"/><path class="d" d="M22,38v4.578" transform="translate(-8.556 -15.401)"/><path class="d" d="M26,42.578V38" transform="translate(-10.267 -15.401)"/><path class="e" d="M20.3,26.022a1.144,1.144,0,0,0,1.144-1.144V22.588a1.144,1.144,0,0,1,1.144-1.144h2.289A1.144,1.144,0,0,0,26.022,20.3V15.722a1.144,1.144,0,0,0-1.144-1.144H22.588a1.144,1.144,0,0,1-1.144-1.144V11.144A1.144,1.144,0,0,0,20.3,10H15.722a1.144,1.144,0,0,0-1.144,1.144v2.289a1.144,1.144,0,0,1-1.144,1.144H11.144A1.144,1.144,0,0,0,10,15.722V20.3a1.144,1.144,0,0,0,1.144,1.144h2.289a1.144,1.144,0,0,1,1.144,1.144v2.289a1.144,1.144,0,0,0,1.144,1.144Z" transform="translate(-3.422 -3.422)"/><path class="f" d="M26.022,16.866V15.722a1.144,1.144,0,0,0-1.144-1.144H22.588a1.144,1.144,0,0,1-1.144-1.144V11.144A1.144,1.144,0,0,0,20.3,10H15.722a1.144,1.144,0,0,0-1.144,1.144v2.289a1.144,1.144,0,0,1-1.144,1.144H11.144A1.144,1.144,0,0,0,10,15.722v1.144Z" transform="translate(-3.422 -3.422)"/><path class="d" d="M20.3,26.022a1.144,1.144,0,0,0,1.144-1.144V22.588a1.144,1.144,0,0,1,1.144-1.144h2.289A1.144,1.144,0,0,0,26.022,20.3V15.722a1.144,1.144,0,0,0-1.144-1.144H22.588a1.144,1.144,0,0,1-1.144-1.144V11.144A1.144,1.144,0,0,0,20.3,10H15.722a1.144,1.144,0,0,0-1.144,1.144v2.289a1.144,1.144,0,0,1-1.144,1.144H11.144A1.144,1.144,0,0,0,10,15.722V20.3a1.144,1.144,0,0,0,1.144,1.144h2.289a1.144,1.144,0,0,1,1.144,1.144v2.289a1.144,1.144,0,0,0,1.144,1.144Z" transform="translate(-3.422 -3.422)"/></g></svg>