<?xml version="1.0" encoding="utf-8"?>
<!-- Generator: Adobe Illustrator 26.5.0, SVG Export Plug-In . SVG Version: 6.00 Build 0)  -->
<svg version="1.1" id="Layer_1" xmlns="http://www.w3.org/2000/svg" xmlns:xlink="http://www.w3.org/1999/xlink" x="0px" y="0px"
	 viewBox="0 0 26.2 26.2" style="enable-background:new 0 0 26.2 26.2;" xml:space="preserve">
<style type="text/css">
	.st0{fill:url(#SVGID_1_);}
	.st1{fill:url(#Rectangle_166_00000017475756238993562080000010822315971534070719_);}
	.st2{fill:url(#Rectangle_167_00000067946029540075589630000011076810381686505136_);}
	.st3{fill:url(#Rectangle_168_00000117652181485622740460000015845983247956844944_);}
	.st4{fill:url(#Rectangle_169_00000146462657283644905120000002099038159792514177_);}
	.st5{fill:#006CFE;}
	.st6{opacity:0.15;fill:#FFFFFF;enable-background:new    ;}
	.st7{opacity:0.52;fill:#FFFFFF;enable-background:new    ;}
	.st8{fill:url(#SVGID_00000065769618766419504630000009490728298199881383_);}
</style>
<g id="Services-Color" transform="translate(-1.5 -1.5)">
	
		<linearGradient id="SVGID_1_" gradientUnits="userSpaceOnUse" x1="20.6" y1="2105.6316" x2="20.6" y2="2129.3562" gradientTransform="matrix(1 0 0 1 -6 -2104)">
		<stop  offset="0" style="stop-color:#00DC5A"/>
		<stop  offset="1" style="stop-color:#00A1CF"/>
	</linearGradient>
	<circle class="st0" cx="14.6" cy="14.6" r="13.1"/>
	
		<linearGradient id="Rectangle_166_00000039846401336431753060000005526572520682673582_" gradientUnits="userSpaceOnUse" x1="-3651.7236" y1="-760.0099" x2="-3651.0181" y2="-759.9997" gradientTransform="matrix(4 0 0 -2 14612.1768 -1505.4121)">
		<stop  offset="0" style="stop-color:#FFFFFF;stop-opacity:0"/>
		<stop  offset="1" style="stop-color:#FFFFFF;stop-opacity:0.749"/>
	</linearGradient>
	
		<rect id="Rectangle_166" x="4.8" y="14.1" style="fill:url(#Rectangle_166_00000039846401336431753060000005526572520682673582_);" width="3.1" height="1"/>
	
		<linearGradient id="Rectangle_167_00000010277676915784916920000014785943198023663782_" gradientUnits="userSpaceOnUse" x1="-3896.6072" y1="-760.006" x2="-3896.0625" y2="-760.006" gradientTransform="matrix(5 0 0 -2 19504.6758 -1505.4121)">
		<stop  offset="0" style="stop-color:#FFFFFF;stop-opacity:0.749"/>
		<stop  offset="1" style="stop-color:#FFFFFF;stop-opacity:0"/>
	</linearGradient>
	
		<rect id="Rectangle_167" x="21.3" y="14.1" style="fill:url(#Rectangle_167_00000010277676915784916920000014785943198023663782_);" width="3.2" height="1"/>
	
		<linearGradient id="Rectangle_168_00000168814774610795733600000001711853916042508469_" gradientUnits="userSpaceOnUse" x1="-3245.3589" y1="-102.562" x2="-3245.3589" y2="-103.349" gradientTransform="matrix(3 0 0 -4 9750.6768 -405.4121)">
		<stop  offset="0" style="stop-color:#FFFFFF;stop-opacity:0"/>
		<stop  offset="1" style="stop-color:#FFFFFF;stop-opacity:0.749"/>
	</linearGradient>
	
		<rect id="Rectangle_168" x="14.1" y="4.8" style="fill:url(#Rectangle_168_00000168814774610795733600000001711853916042508469_);" width="1" height="3.1"/>
	
		<linearGradient id="Rectangle_169_00000001627402730280366350000004931833190721803141_" gradientUnits="userSpaceOnUse" x1="-6498.6411" y1="1212.4636" x2="-6498.6411" y2="1211.6768" gradientTransform="matrix(-3 0 0 4 -19481.3242 -4825.4121)">
		<stop  offset="0" style="stop-color:#FFFFFF;stop-opacity:0"/>
		<stop  offset="1" style="stop-color:#FFFFFF;stop-opacity:0.749"/>
	</linearGradient>
	
		<rect id="Rectangle_169" x="14.1" y="21.3" style="fill:url(#Rectangle_169_00000001627402730280366350000004931833190721803141_);" width="1" height="3.1"/>
	<path id="Path_16803" class="st5" d="M16.4,20.9c0.5,0,0.9-0.4,0.9-0.9l0,0v-1.8c0-0.5,0.4-0.9,0.9-0.9l0,0H20
		c0.5,0,0.9-0.4,0.9-0.9l0,0v-3.6c0-0.5-0.4-0.9-0.9-0.9l0,0h-1.8c-0.5,0-0.9-0.4-0.9-0.9V9.2c0-0.5-0.4-0.9-0.9-0.9l0,0h-3.6
		c-0.5,0-0.9,0.4-0.9,0.9l0,0V11c0,0.5-0.4,0.9-0.9,0.9l0,0H9.2c-0.5,0-0.9,0.4-0.9,0.9l0,0v3.6c0,0.5,0.4,0.9,0.9,0.9l0,0H11
		c0.5,0,0.9,0.4,0.9,0.9l0,0V20c0,0.5,0.4,0.9,0.9,0.9H16.4z"/>
	<path id="Path_16804" class="st6" d="M20.9,13.7v-0.9c0-0.5-0.4-0.9-0.9-0.9l0,0h-1.8c-0.5,0-0.9-0.4-0.9-0.9V9.2
		c0-0.5-0.4-0.9-0.9-0.9l0,0h-3.6c-0.5,0-0.9,0.4-0.9,0.9l0,0V11c0,0.5-0.4,0.9-0.9,0.9l0,0H9.2c-0.5,0-0.9,0.4-0.9,0.9l0,0v0.9
		L20.9,13.7z"/>
	<path class="st7" d="M24.5,15.1h-3.2v-1h3.2c0.2,0,0.4-0.2,0.4-0.4s-0.2-0.4-0.4-0.4h-3.2v-0.5c0-0.7-0.6-1.3-1.3-1.3h-1.8
		c-0.1,0-0.3-0.1-0.4-0.1c-0.1-0.1-0.1-0.2-0.1-0.4V9.2c0-0.7-0.6-1.3-1.3-1.3h-0.5V4.7c0-0.2-0.2-0.4-0.4-0.4s-0.4,0.2-0.4,0.4v3.2
		h-1V4.7c0-0.2-0.2-0.4-0.4-0.4s-0.4,0.2-0.4,0.4v3.2h-0.5l0,0c-0.7,0-1.3,0.6-1.3,1.3V11c0,0.3-0.2,0.5-0.5,0.5H9.2
		c-0.7,0-1.3,0.6-1.3,1.3v0.5H4.7c-0.2,0-0.4,0.2-0.4,0.4s0.2,0.4,0.4,0.4h3.2v1H4.7c-0.2,0-0.4,0.2-0.4,0.4s0.2,0.4,0.4,0.4h3.2
		v0.5c0,0.7,0.6,1.3,1.3,1.3H11c0.1,0,0.3,0.1,0.4,0.1c0.1,0.1,0.1,0.2,0.1,0.4V20c0,0.7,0.6,1.3,1.3,1.3h0.5v3.2
		c0,0.2,0.2,0.4,0.4,0.4s0.4-0.2,0.4-0.4v-3.2h1v3.2c0,0.2,0.2,0.4,0.4,0.4s0.4-0.2,0.4-0.4v-3.2h0.5l0,0c0.7,0,1.3-0.6,1.3-1.3
		v-1.8c0-0.3,0.2-0.5,0.5-0.5H20c0.7,0,1.3-0.6,1.3-1.3v-0.5h3.2c0.2,0,0.4-0.2,0.4-0.4S24.7,15.1,24.5,15.1z M12.3,20v-1.8
		c0-0.7-0.6-1.3-1.3-1.3H9.2c-0.1,0-0.3-0.1-0.4-0.1c-0.1-0.1-0.1-0.2-0.1-0.4v-3.6c0-0.3,0.2-0.5,0.5-0.5H11c0.7,0,1.3-0.6,1.3-1.3
		V9.2c0-0.3,0.2-0.5,0.5-0.5h3.6c0.1,0,0.3,0.1,0.4,0.1c0.1,0.1,0.1,0.2,0.1,0.4V11c0,0.7,0.6,1.3,1.3,1.3H20c0.1,0,0.3,0.1,0.4,0.1
		c0.1,0.1,0.1,0.2,0.1,0.4v3.6c0,0.3-0.2,0.5-0.5,0.5h-1.8c-0.7,0-1.3,0.6-1.3,1.3V20c0,0.3-0.2,0.5-0.5,0.5h-0.9l0,0l0,0h-1.8l0,0
		l0,0h-0.9C12.3,20.5,12.3,20,12.3,20z"/>
	<g>
		
			<linearGradient id="SVGID_00000023980055445608115730000000606946914068107450_" gradientUnits="userSpaceOnUse" x1="20.6" y1="2105.5" x2="20.6" y2="2131.7" gradientTransform="matrix(1 0 0 1 -6 -2104)">
			<stop  offset="0" style="stop-color:#FFFFFF;stop-opacity:0.5"/>
			<stop  offset="0.2504" style="stop-color:#FFFFFF;stop-opacity:0"/>
			<stop  offset="0.5178" style="stop-color:#FFFFFF;stop-opacity:0"/>
			<stop  offset="0.7655" style="stop-color:#FFFFFF;stop-opacity:0"/>
			<stop  offset="1" style="stop-color:#FFFFFF;stop-opacity:0.5"/>
		</linearGradient>
		<path style="fill:url(#SVGID_00000023980055445608115730000000606946914068107450_);" d="M14.6,1.9c7,0,12.7,5.7,12.7,12.7
			s-5.7,12.7-12.7,12.7S1.8,21.6,1.8,14.6S7.6,1.9,14.6,1.9 M14.6,1.5C7.4,1.5,1.5,7.4,1.5,14.6s5.9,13.1,13.1,13.1
			s13.1-5.9,13.1-13.1S21.8,1.5,14.6,1.5L14.6,1.5z"/>
	</g>
</g>
</svg>
