<?xml version="1.0" encoding="utf-8"?>
<!-- Generator: Adobe Illustrator 26.5.0, SVG Export Plug-In . SVG Version: 6.00 Build 0)  -->
<svg version="1.1" id="Layer_1" xmlns="http://www.w3.org/2000/svg" xmlns:xlink="http://www.w3.org/1999/xlink" x="0px" y="0px"
	 viewBox="0 0 24.2 24.2" style="enable-background:new 0 0 24.2 24.2;" xml:space="preserve">
<style type="text/css">
	.st0{fill:#00DC5A;}
	.st1{opacity:0.25;fill:#FFFFFF;enable-background:new    ;}
	.st2{fill:#54D9FF;}
	.st3{fill:#FFFFFF;}
</style>
<g id="Support-Color" transform="translate(-0.5 -0.5)">
	<path id="Path_16778" class="st0" d="M14.5,13c-1.4,0-2.5,1.1-2.5,2.5v3c0,1.4,1.1,2.5,2.5,2.5h0H17l3,3v-3h1.5
		c1.4,0,2.5-1.1,2.5-2.5v0v-3c0-1.4-1.1-2.5-2.5-2.5h0H14.5z"/>
	<path id="Path_16779" class="st1" d="M21.6,13h-7.1c-1.4,0-2.5,1.1-2.5,2.5v3c0-1.4,1.1-2.5,2.5-2.5h0h7.1c1.4,0,2.5,1.1,2.5,2.5v0
		v-3C24.1,14.1,23,13,21.6,13L21.6,13z"/>
	<path id="Path_16780" class="st2" d="M15,0.9H4.9c-2.2,0-4,1.8-4,4v5c0,2.2,1.8,4,4,4c0,0,0,0,0,0h1v4l4.5-4H15c2.2,0,4-1.8,4-4v0
		v-5C19,2.7,17.2,0.9,15,0.9L15,0.9z"/>
	<path id="Path_16781" class="st1" d="M15,0.9H4.9c-2.2,0-4,1.8-4,4v3c0-2.2,1.8-4,4-4H15c2.2,0,4,1.8,4,4v-3
		C19,2.7,17.2,0.9,15,0.9z"/>
	<g id="Path_16782">
		<path class="st3" d="M6,18.5c-0.1,0-0.1,0-0.2,0c-0.2-0.1-0.3-0.3-0.3-0.5v-3.5H4.9c-1.2,0-2.3-0.5-3.2-1.3s-1.3-2-1.3-3.2v-5
			c0-2.5,2-4.5,4.5-4.5H15c2.5,0,4.5,2,4.5,4.5v5c0,2.5-2,4.5-4.5,4.5h-4.3l-4.4,3.9C6.2,18.5,6.1,18.5,6,18.5z M4.9,1.4
			C3,1.4,1.4,3,1.4,4.9v5c0,0.9,0.4,1.8,1,2.5s1.6,1,2.5,1h1c0.3,0,0.5,0.2,0.5,0.5v2.9l3.7-3.3c0.1-0.1,0.2-0.1,0.3-0.1H15
			c1.9,0,3.5-1.6,3.5-3.5v-5C18.5,3,17,1.4,15,1.4H4.9z"/>
	</g>
	<g id="Path_16783">
		<path class="st3" d="M20.1,24.6c-0.1,0-0.3-0.1-0.4-0.1l-2.9-2.9h-2.3c-1.7,0-3-1.4-3-3v-4.3c0-0.3,0.2-0.5,0.5-0.5
			s0.5,0.2,0.5,0.5v4.3c0,1.1,0.9,2,2,2H17c0.1,0,0.3,0.1,0.4,0.1l2.2,2.2v-1.8c0-0.3,0.2-0.5,0.5-0.5h1.5c1.1,0,2-0.9,2-2v-3
			c0-1.1-0.9-2-2-2h-3.7c-0.3,0-0.5-0.2-0.5-0.5s0.2-0.5,0.5-0.5h3.7c1.7,0,3,1.4,3,3v3c0,1.7-1.4,3-3,3h-1v2.5
			c0,0.2-0.1,0.4-0.3,0.5C20.2,24.6,20.1,24.6,20.1,24.6z"/>
	</g>
</g>
</svg>
