<svg xmlns="http://www.w3.org/2000/svg" xmlns:xlink="http://www.w3.org/1999/xlink" width="24.175" height="24.175" viewBox="0 0 24.175 24.175"><defs><style>.a{fill:url(#a);}.b{fill:none;stroke:#fff;stroke-linecap:round;stroke-linejoin:round;}</style><linearGradient id="a" x1="0.5" x2="0.5" y2="1" gradientUnits="objectBoundingBox"><stop offset="0" stop-color="#fff" stop-opacity="0.749"/><stop offset="1" stop-color="#fff" stop-opacity="0.251"/></linearGradient></defs><g transform="translate(-0.5 -0.5)"><path class="a" d="M28.363,25c-1.316,1.137-3.64,1.092-5.363,1.086s0,.765,0,1.433v3.023a2.519,2.519,0,0,0,2.519,2.519h2.519l3.023,3.023V33.061h1.511a2.519,2.519,0,0,0,2.519-2.519V27.519A2.519,2.519,0,0,0,32.572,25Z" transform="translate(-10.916 -11.909)"/><path class="a" d="M15.106,1H5.03A4.03,4.03,0,0,0,1,5.03v5.038A4.03,4.03,0,0,0,5.03,14.1H6.038v4.03l4.534-4.03h4.534a4.03,4.03,0,0,0,4.03-4.03V5.03A4.03,4.03,0,0,0,15.106,1Z"/><path class="b" d="M15.106,1H5.03A4.03,4.03,0,0,0,1,5.03v5.038A4.03,4.03,0,0,0,5.03,14.1H6.038v4.03l4.534-4.03h4.534a4.03,4.03,0,0,0,4.03-4.03V5.03A4.03,4.03,0,0,0,15.106,1Z"/><path class="b" d="M23,26.26v4.282a2.519,2.519,0,0,0,2.519,2.519h2.519l3.023,3.023V33.061h1.511a2.519,2.519,0,0,0,2.519-2.519V27.519A2.519,2.519,0,0,0,32.572,25H28.915" transform="translate(-10.916 -11.909)"/></g></svg>