<?xml version="1.0" encoding="utf-8"?>
<!-- Generator: Adobe Illustrator 27.1.1, SVG Export Plug-In . SVG Version: 6.00 Build 0)  -->
<svg version="1.1" id="Layer_1" xmlns="http://www.w3.org/2000/svg" xmlns:xlink="http://www.w3.org/1999/xlink" x="0px" y="0px"
	 viewBox="0 0 48 48" style="enable-background:new 0 0 48 48;" xml:space="preserve">
<style type="text/css">
	.st0{fill:#E3E3E3;}
	.st1{fill:#FFFFFF;}
	.st2{fill:none;stroke:#002567;stroke-linecap:round;stroke-linejoin:round;stroke-miterlimit:8;}
	.st3{fill:#FF808C;stroke:#002567;stroke-linecap:round;stroke-linejoin:round;stroke-miterlimit:8;}
	.st4{fill:#E3E3E3;stroke:#002567;stroke-linecap:round;stroke-linejoin:round;stroke-miterlimit:8;}
</style>
<path class="st0" d="M37,11h3c0.5,0,1,0.2,1.4,0.6C41.8,12,42,12.5,42,13v22c0,3.2-1.3,6.2-3.5,8.5C36.3,45.7,33.2,47,30,47H8
	c-0.5,0-1-0.2-1.4-0.6C6.2,46,6,45.5,6,45V13c0-0.5,0.2-1,0.6-1.4C7,11.2,7.5,11,8,11h17"/>
<path class="st1" d="M40,11H8c-0.5,0-1,0.2-1.4,0.6C6.2,12,6,12.5,6,13v32c0,0.4,0.2,0.9,0.4,1.2l34.8-34.8C40.9,11.2,40.4,11,40,11
	z"/>
<path class="st2" d="M37,11h3c0.5,0,1,0.2,1.4,0.6C41.8,12,42,12.5,42,13v22c0,3.2-1.3,6.2-3.5,8.5C36.3,45.7,33.2,47,30,47H8
	c-0.5,0-1-0.2-1.4-0.6C6.2,46,6,45.5,6,45V13c0-0.5,0.2-1,0.6-1.4C7,11.2,7.5,11,8,11h17"/>
<path class="st2" d="M25,20l7-13"/>
<path class="st3" d="M33,9c0.8,0,1.6-0.2,2.2-0.7c0.7-0.4,1.2-1.1,1.5-1.8C37,5.8,37.1,5,36.9,4.2c-0.2-0.8-0.5-1.5-1.1-2
	c-0.6-0.6-1.3-0.9-2-1.1C33,0.9,32.2,1,31.5,1.3c-0.7,0.3-1.4,0.8-1.8,1.5C29.2,3.4,29,4.2,29,5c0,1.1,0.4,2.1,1.2,2.8
	C30.9,8.6,31.9,9,33,9z"/>
<path class="st4" d="M41.9,37c-0.4,2.5-1.6,4.7-3.3,6.5c-1.8,1.8-4,2.9-6.5,3.3V39c0-0.5,0.2-1,0.6-1.4s0.9-0.6,1.4-0.6H41.9z"/>
<path class="st2" d="M12,25h22"/>
<path class="st2" d="M12,31h22"/>
<path class="st2" d="M12,37h11"/>
</svg>
