<svg xmlns="http://www.w3.org/2000/svg" width="23.999" height="24" viewBox="0 0 23.999 24"><defs><style>.a{fill:#fff;}.b{fill:#fdfdfd;}.c{fill:#ed174f;}.d{fill:#f8d500;}</style></defs><g transform="translate(10.155 10.155)"><path class="a" d="M11,12.844A1.845,1.845,0,1,0,12.85,11,1.845,1.845,0,0,0,11,12.844Z" transform="translate(-11.002 -11.002)"/></g><g transform="translate(3.098 3.069)"><path class="b" d="M12.787,12.753a.01.01,0,0,0,0,0c.36-.36,1.016-1.583.665-1.9,0,0-9.793-7.815-10.088-7.521S10.856,13.45,10.856,13.45C11.17,13.8,12.428,13.111,12.787,12.753Z" transform="translate(-3.356 -3.325)"/></g><path class="c" d="M1.9,0A1.9,1.9,0,1,1,0,1.9,1.9,1.9,0,0,1,1.9,0Z" transform="translate(10.12 0)"/><path class="d" d="M15.958,1.756a1.316,1.316,0,0,0,.667,1.883A9.65,9.65,0,1,1,2.341,12.1a9.547,9.547,0,0,1,.653-3.471,1.224,1.224,0,0,0-.449-1.714,1.1,1.1,0,0,0-1.534.373A12,12,0,1,0,17.3,1.347,1.067,1.067,0,0,0,15.958,1.756Z" transform="translate(0 -0.097)"/></svg>