<svg xmlns="http://www.w3.org/2000/svg" width="42.737" height="42.435" viewBox="0 0 42.737 42.435"><defs><style>.a{fill:#e3e3e3;}.b{fill:rgba(255,255,255,0.25);}.c,.h{fill:none;}.c{stroke:#fff;}.c,.d,.e,.f,.g,.h{stroke-linecap:round;stroke-linejoin:round;}.d{fill:#ffef5e;}.d,.e,.f,.g,.h{stroke:#042d6d;}.e{fill:#ffbc44;}.f{fill:#ff808c;}.g{fill:#78eb7b;}</style></defs><g transform="translate(-0.6 -0.624)"><path class="a" d="M20.533,39.99A19.433,19.433,0,1,0,1.1,20.557,19.433,19.433,0,0,0,20.533,39.99Z"/><path class="b" d="M6.794,34.3A19.433,19.433,0,0,1,34.276,6.817Z" transform="translate(-0.001 -0.001)"/><path class="c" d="M20.533,39.99A19.433,19.433,0,1,0,1.1,20.557,19.433,19.433,0,0,0,20.533,39.99Z"/><path class="d" d="M36.1,29,27.41,37.691l3.951,3.951,8.693-8.693Z" transform="matrix(-0.259, 0.966, -0.966, -0.259, 77.343, 7.791)"/><path class="e" d="M25.411,45.532l5.531-1.58L26.991,40Z" transform="matrix(-0.259, 0.966, -0.966, -0.259, 79.465, 8.795)"/><path class="f" d="M44.966,28.475l-2.833-2.832a.79.79,0,0,0-1.117,0l-2.6,2.6,3.95,3.95,2.6-2.6a.79.79,0,0,0,0-1.12Z" transform="matrix(-0.259, 0.966, -0.966, -0.259, 77.213, 5.365)"/><g transform="translate(9.123 0.467)"><path class="f" d="M12.529,13H7.789a.79.79,0,0,0-.79.79V18.53a.79.79,0,0,0,.79.79h4.741a.79.79,0,0,0,.79-.79V13.789A.79.79,0,0,0,12.529,13Z" transform="translate(-1.259 -2.519)"/><path class="g" d="M12.529,27H7.789a.79.79,0,0,0-.79.79V32.53a.79.79,0,0,0,.79.79h4.741a.79.79,0,0,0,.79-.79V27.789A.79.79,0,0,0,12.529,27Z" transform="translate(-1.259 -5.458)"/><path class="h" d="M15,17h3.16a1.58,1.58,0,0,1,1.58,1.58v7.9a1.58,1.58,0,0,1-1.58,1.58H15" transform="translate(-2.939 -3.359)"/><path class="h" d="M26.739,23H22" transform="translate(-5.198 -3.828)"/></g></g></svg>