<?xml version="1.0" encoding="utf-8"?>
<!-- Generator: Adobe Illustrator 27.0.0, SVG Export Plug-In . SVG Version: 6.00 Build 0)  -->
<svg version="1.1" id="Layer_1" xmlns="http://www.w3.org/2000/svg" xmlns:xlink="http://www.w3.org/1999/xlink" x="0px" y="0px"
	 viewBox="0 0 24 24" style="enable-background:new 0 0 24 24;" xml:space="preserve">
<style type="text/css">
	.st0{fill:#66E1FF;}
	.st1{fill:none;stroke:#002567;stroke-linecap:round;stroke-linejoin:round;}
	.st2{fill:#002567;}
</style>
<path class="st0" d="M12,21.5c4.4,0,8-3.6,8-8s-3.6-8-8-8s-8,3.6-8,8S7.6,21.5,12,21.5z"/>
<path class="st1" d="M8.5,0.5l4.5,3L9,7"/>
<path class="st1" d="M21,17.9c-0.8,1.6-2,3-3.5,4s-3.2,1.6-5,1.7s-3.6-0.3-5.1-1.1c-1.6-0.8-2.9-2.1-3.9-3.6c-0.9-1.5-1.5-3.3-1.5-5
	c0-1.8,0.4-3.6,1.2-5.1C4.1,7.2,5.3,5.9,6.9,5c1.6-1,3.3-1.5,5.1-1.5h1"/>
<path class="st1" d="M22,12.5c0,0.3,0,0.7,0,1c0,0.8-0.1,1.7-0.3,2.5"/>
<path class="st1" d="M20,7.5c0.7,0.9,1.2,1.9,1.5,3"/>
<path class="st1" d="M16,4.3c0.9,0.4,1.7,0.9,2.5,1.6"/>
<path class="st2" d="M12.1,7.7l-3.8,5.8l2.2,1.4l0.4-0.6l1.1,5.4l3.8-5.9l-2.1-1.4L13.3,13L12.1,7.7z M13.8,13.5l0.9,0.6L12.3,18
	l-1.1-5.4L10.3,14l-0.9-0.6l2.5-3.8L13,15L13.8,13.5z"/>
</svg>
