<svg xmlns="http://www.w3.org/2000/svg" width="40.406" height="40.186" viewBox="0 0 40.406 40.186"><defs><style>.a{fill:#e3e3e3;}.b{fill:rgba(255,255,255,0.25);}.c,.d{fill:none;stroke-linecap:round;stroke-linejoin:round;}.c{stroke:#fff;}.d{stroke:#042d6d;}.e{fill:#ffef5e;}</style></defs><g transform="translate(-0.6 -0.624)"><path class="a" d="M20.533,39.99A19.433,19.433,0,1,0,1.1,20.557,19.433,19.433,0,0,0,20.533,39.99Z"/><path class="b" d="M6.794,34.3A19.433,19.433,0,0,1,34.276,6.817Z" transform="translate(-0.001 -0.001)"/><path class="c" d="M20.533,39.99A19.433,19.433,0,1,0,1.1,20.557,19.433,19.433,0,0,0,20.533,39.99Z"/><path class="d" d="M14.053,14.048,7.081,21.021l6.973,6.973" transform="translate(3.552 -0.126)"/><path class="d" d="M19.026,14.048,26,21.021l-6.973,6.973" transform="translate(5.552 -0.126)"/><path class="e" d="M29.953,23.459l1.6,3.7h3.105a.762.762,0,0,1,.537,1.331l-2.7,2.4,1.493,3.436a.814.814,0,0,1-1.159,1.018l-3.6-2.034L25.62,35.351a.814.814,0,0,1-1.158-1.018l1.49-3.441-2.7-2.4a.761.761,0,0,1,.533-1.331H26.9l1.6-3.7a.83.83,0,0,1,1.461,0Z" transform="translate(5.059 4.849)"/><path class="b" d="M31.545,27.16l-1.6-3.7a.83.83,0,0,0-1.461,0l-1.6,3.7H23.775a.761.761,0,0,0-.533,1.331l2.7,2.4-1.49,3.435a.8.8,0,0,0-.01.575l7.751-7.747Z" transform="translate(5.065 4.846)"/><path class="d" d="M29.953,23.459l1.6,3.7h3.105a.762.762,0,0,1,.537,1.331l-2.7,2.4,1.493,3.436a.814.814,0,0,1-1.159,1.018l-3.6-2.034L25.62,35.351a.814.814,0,0,1-1.158-1.018l1.49-3.441-2.7-2.4a.761.761,0,0,1,.533-1.331H26.9l1.6-3.7a.83.83,0,0,1,1.461,0Z" transform="translate(5.059 4.849)"/></g></svg>