<svg xmlns="http://www.w3.org/2000/svg" width="32.781" height="32.781" viewBox="0 0 32.781 32.781"><defs><style>.a{fill:#ffc400;}.b{fill:#fff;opacity:0.45;}.c,.d,.e{fill:none;}.c{stroke:#fff;}.c,.d{stroke-linecap:round;stroke-linejoin:round;}.d,.e{stroke:#002567;stroke-width:1.5px;}</style></defs><g transform="translate(-0.5 -0.5)"><path class="a" d="M1,28.49a30.112,30.112,0,0,1,8.291-1.382c4.145,0,10.363,2.764,14.509,2.764a25.582,25.582,0,0,0,8.082-1.719,1.382,1.382,0,0,0,.9-1.3V7.681a1.382,1.382,0,0,0-1.824-1.309A24,24,0,0,1,23.8,7.764C19.654,7.764,13.436,5,9.291,5A30.115,30.115,0,0,0,1,6.382Z" transform="translate(0 -1.236)"/><path class="b" d="M17.927,28.583V6.474A37.3,37.3,0,0,0,9.831,5,33.988,33.988,0,0,0,1,6.382V28.49a33.937,33.937,0,0,1,8.831-1.382,37.316,37.316,0,0,1,8.1,1.474Z" transform="translate(0 -1.236)"/><path class="c" d="M1,32.781V1" transform="translate(0 0)"/><path class="c" d="M1,28.49a30.112,30.112,0,0,1,8.291-1.382c4.145,0,10.363,2.764,14.509,2.764a25.582,25.582,0,0,0,8.082-1.719,1.382,1.382,0,0,0,.9-1.3V7.681a1.382,1.382,0,0,0-1.825-1.309A24,24,0,0,1,23.8,7.764C19.654,7.764,13.436,5,9.291,5A30.115,30.115,0,0,0,1,6.382Z" transform="translate(0 -1.236)"/><path class="d" d="M25,23.291V15" transform="translate(-7.418 -4.327)"/><path class="e" d="M24.845,31.742a.345.345,0,1,1,0-.691" transform="translate(-7.264 -9.289)"/><path class="e" d="M25,31.742a.345.345,0,1,0,0-.691" transform="translate(-7.418 -9.289)"/></g></svg>