<?xml version="1.0" encoding="utf-8"?>
<!-- Generator: Adobe Illustrator 26.5.0, SVG Export Plug-In . SVG Version: 6.00 Build 0)  -->
<svg version="1.1" id="Layer_1" xmlns="http://www.w3.org/2000/svg" xmlns:xlink="http://www.w3.org/1999/xlink" x="0px" y="0px"
	 viewBox="0 0 307 202.3" style="enable-background:new 0 0 307 202.3;" xml:space="preserve">
<style type="text/css">
	.st0{clip-path:url(#SVGID_00000140716209990295890860000009440196026556742322_);}
	.st1{fill:#E8003D;}
	.st2{fill:#2D313F;}
	.st3{fill:#FEAF06;}
	.st4{fill:#FBD82B;}
	.st5{fill:#FFE278;}
	.st6{fill:#FFFFFF;}
	.st7{fill:#701D1D;}
	.st8{fill:#FEFCF9;}
	.st9{clip-path:url(#SVGID_00000047058328154743470050000013054579790523952279_);}
	.st10{fill:url(#Rectangle_163_00000092414372581732155670000007347291800826814890_);}
</style>
<g id="Group_248" transform="translate(-799 -404.363)">
	<g id="Ziggy" transform="translate(977.857 404.363)">
		<g id="Group_217">
			<g>
				<defs>
					<rect id="SVGID_1_" x="0" y="0" width="128.2" height="202.3"/>
				</defs>
				<clipPath id="SVGID_00000099631483116262907680000006045956904556050100_">
					<use xlink:href="#SVGID_1_"  style="overflow:visible;"/>
				</clipPath>
				<g id="Group_216" style="clip-path:url(#SVGID_00000099631483116262907680000006045956904556050100_);">
					<path id="Path_16730" d="M11.5,134.6c-0.4,0-0.7-0.1-1-0.3c-8.2-4.6-12.2-14.2-9.6-23.3c0.7-2.5,2.1-4.7,4.1-6.4
						c2.2-1.9,5.3-2.5,8.1-1.7c1.1,0.4,1.7,1.6,1.3,2.8c-0.4,1.1-1.6,1.7-2.8,1.3c-1.4-0.4-2.9,0-4,0.9c-1.3,1.2-2.2,2.7-2.7,4.4
						c-2,7.1,1.1,14.5,7.5,18.1c1.1,0.6,1.5,1.9,0.9,2.9C13,134.1,12.3,134.6,11.5,134.6"/>
					<path id="Path_16731" d="M68.1,202.3c-0.3,0-0.7-0.1-1-0.2l-8.7-4.3c-0.7-0.4-1.2-1.1-1.2-1.9v-42.9c0-1.2,1-2.2,2.2-2.1
						c1.2,0,2.1,1,2.1,2.1v41.6l7.5,3.7c1.1,0.5,1.5,1.8,1,2.9C69.7,201.9,69,202.3,68.1,202.3"/>
					<path id="Path_16732" d="M37.3,202.3c-1.2,0-2.2-1-2.2-2.2c0-0.8,0.5-1.6,1.2-1.9l7.5-3.7v-41.6c0-1.2,1-2.2,2.2-2.1
						c1.2,0,2.1,1,2.1,2.1v43c0,0.8-0.5,1.6-1.2,1.9l-8.7,4.3C38,202.2,37.7,202.3,37.3,202.3"/>
					<path id="Path_16733" d="M103.9,119.9c-1.6,0-3.2-0.6-4.4-1.7l-11.4-9.5c-0.9-0.7-1.1-2.1-0.3-3.1c0.7-0.9,2.1-1.1,3.1-0.3
						c0,0,0,0,0.1,0.1l11.4,9.5c0.1,0,0.1,0.1,0.1,0.1c0.5,0.4,1.1,0.6,1.8,0.4c1-0.2,3-1.1,5.5-5.6c3.5-6.1,6.2-12.7,8.1-19.5
						c0.3-1.2,1.5-1.8,2.7-1.5c1.1,0.3,1.8,1.5,1.5,2.6c-2,7.2-4.9,14-8.6,20.5c-2.7,4.7-5.6,7.4-8.8,7.8
						C104.6,119.8,104.2,119.9,103.9,119.9"/>
					<path id="Path_16734" d="M115.8,103.4c-0.7,0-1.3-0.3-1.7-0.8l-5.9-7.5c-0.7-0.9-0.6-2.3,0.4-3s2.3-0.6,3,0.4l5.2,6.6l9-0.9
						c1.2-0.1,2.2,0.8,2.3,2c0.1,1.2-0.7,2.2-1.9,2.3l-10.2,1.1C115.9,103.4,115.9,103.4,115.8,103.4"/>
					<path id="Path_16735" class="st1" d="M91.3,94.9H9.9c-3.6,0-6.5-2.9-6.5-6.5v-5.3c0-3.6,2.9-6.5,6.5-6.5h81.4
						c3.6,0,6.5,2.9,6.5,6.5v5.3C97.8,92,94.9,94.9,91.3,94.9"/>
					<path id="Path_16736" class="st1" d="M91.3,95.2H9.9c-3.7,0-6.8-3-6.8-6.8v-5.3c0-3.7,3-6.8,6.8-6.8h81.4c3.7,0,6.8,3,6.8,6.8
						v5.3C98.1,92.1,95,95.2,91.3,95.2 M9.9,76.9c-3.4,0-6.2,2.8-6.2,6.2v5.3c0,3.4,2.8,6.2,6.2,6.2h81.4c3.4,0,6.2-2.8,6.2-6.2
						v-5.3c0-3.4-2.8-6.2-6.2-6.2H9.9z"/>
					<path id="Path_16737" class="st2" d="M85.7,143.8c0,8.2-15.3,14.8-34.2,14.8s-34.2-6.6-34.2-14.8s15.3-14.8,34.2-14.8
						S85.7,135.7,85.7,143.8"/>
					<path id="Path_16738" class="st3" d="M51.1,32.4c-22.6,0-40.9-7.3-40.9-16.2S28.5,0,51.1,0s40.9,7.3,40.9,16.2
						S73.6,32.4,51.1,32.4"/>
					<path id="Path_16739" class="st4" d="M10.2,16.2c0,9,18.3,16.2,40.9,16.2s40.9-7.3,40.9-16.2c0,0,0.2,117.6,0,120.1
						c-0.8,8.9-18.3,16.2-40.9,16.2s-40.9-7.3-40.9-16.2V16.2z"/>
					<path id="Path_16740" class="st5" d="M17.2,135.2V25.3c1.4,0.8,2.8,1.5,4.3,2.1v120.1c-1.5-0.6-2.9-1.3-4.3-2.1L17.2,135.2z"/>
					<path id="Path_16741" class="st5" d="M36.1,127.5V31.3c-1.5-0.2-2.9-0.5-4.3-0.8v120.1c1.4,0.3,2.8,0.6,4.3,0.8V127.5z"/>
					<path id="Path_16742" class="st5" d="M54.9,150.3V32.4c-1.2,0-2.5,0.1-3.8,0.1h-0.5v120.1h0.5c1.3,0,2.5,0,3.8-0.1V150.3z"/>
					<path id="Path_16743" class="st5" d="M66.3,151.4V31.3l4.3-0.8v120.1L66.3,151.4z"/>
					<path id="Path_16744" class="st5" d="M85.7,137V24.9c-1.4,0.8-2.8,1.5-4.3,2.2v120c1.3-0.6,3.4-1.8,4.3-2.3L85.7,137z"/>
					<path id="Path_16745" class="st1" d="M8.5,106.4v29.8c0,9,19.1,16.2,42.7,16.2s41.8-7.3,42.7-16.2c0.1-0.8,0.1-14.1,0.1-31.5
						l-0.1-20.5c0,9-19.1,16.2-42.7,16.2S8.5,93.3,8.5,84.3L8.5,106.4z"/>
					<path id="Path_16746" class="st1" d="M51.1,152.8c-23.7,0-42.9-7.4-42.9-16.5v-52h0.5c0,8.8,19,15.9,42.4,15.9
						s42.4-7.2,42.4-15.9h0.5l0,0l0.1,20.5c0,20.1,0,30.7-0.1,31.5C93.2,145.5,74.3,152.8,51.1,152.8 M8.7,86.9v49.3
						c0,8.8,19,16,42.4,16c22.9,0,41.5-7,42.4-16c0.1-0.7,0.1-11.3,0.1-31.4l-0.1-17.9c-3.2,7.9-21,13.9-42.4,13.9
						C29.8,100.8,12,94.8,8.7,86.9"/>
					<path id="Path_16747" class="st6" d="M53.3,107.2l-11.9,18.2l6.8,4.4l1.1-1.7l3.5,16.9l11.8-18.3l-6.6-4.3l-1.1,1.7L53.3,107.2
						z M58.6,125.4l2.9,2l-7.7,11.8l-3.5-16.9l-2.9,4.4l-2.8-1.9l7.8-11.9l3.5,16.8L58.6,125.4z"/>
					<path id="Path_16748" class="st7" d="M48,86.6c-1.2,0-2.2-1-2.2-2.2c0-1.1,0.9-2.1,2-2.2c10.7-0.7,11.9-8.4,12-8.7
						c0.2-1.2,1.3-2,2.5-1.8c1.2,0.2,2,1.2,1.8,2.4c-0.5,4-4.5,11.7-16,12.5C48.1,86.6,48,86.6,48,86.6"/>
					<path id="Path_16749" class="st8" d="M78.6,57.2c0,4.8-3.9,8.7-8.7,8.7s-8.7-3.9-8.7-8.7c0-4.8,3.9-8.7,8.7-8.7
						C74.7,48.5,78.6,52.4,78.6,57.2L78.6,57.2"/>
					<path id="Path_16750" class="st7" d="M74.4,57.2c0,2.5-2,4.5-4.5,4.5c-2.5,0-4.5-2-4.5-4.5c0-2.5,2-4.5,4.5-4.5c0,0,0,0,0,0
						C72.4,52.7,74.4,54.7,74.4,57.2"/>
					<path id="Path_16751" class="st8" d="M45.5,57.2c0,4.8-3.9,8.7-8.7,8.7c-4.8,0-8.7-3.9-8.7-8.7c0-4.8,3.9-8.7,8.7-8.7
						C41.6,48.5,45.5,52.4,45.5,57.2"/>
					<path id="Path_16752" class="st7" d="M41.3,57.2c0,2.5-2,4.5-4.5,4.5c-2.5,0-4.5-2-4.5-4.5c0-2.5,2-4.5,4.5-4.5c0,0,0,0,0,0
						C39.3,52.7,41.3,54.7,41.3,57.2"/>
				</g>
			</g>
		</g>
		<g id="Group_219" transform="translate(21.918 12.413)">
			<g>
				<defs>
					<path id="SVGID_00000041264304122191418280000010154888140633014402_" d="M0,15.2c14.8,6.6,44.3,6.4,59-0.3
						C58.5,4.9,44.6,0,30.4,0C15.8,0,0.9,5.2,0,15.2"/>
				</defs>
				<clipPath id="SVGID_00000001666045513260885970000003999700054452442804_">
					<use xlink:href="#SVGID_00000041264304122191418280000010154888140633014402_"  style="overflow:visible;"/>
				</clipPath>
				<g id="Group_218" style="clip-path:url(#SVGID_00000001666045513260885970000003999700054452442804_);">
					
						<radialGradient id="Rectangle_163_00000063610028076527210620000007638730836011850890_" cx="-1055.3667" cy="649.3564" r="0.981" gradientTransform="matrix(0 -21.8 40.4939 0 -25998.6895 -22836.0605)" gradientUnits="userSpaceOnUse">
						<stop  offset="0" style="stop-color:#FF8C1F"/>
						<stop  offset="1" style="stop-color:#FEAF06"/>
					</radialGradient>
					
						<rect id="Rectangle_163" x="0" y="0" style="fill:url(#Rectangle_163_00000063610028076527210620000007638730836011850890_);" width="59" height="21.8"/>
				</g>
			</g>
		</g>
	</g>
</g>
<g>
	<path class="st6" d="M113.8,97l1.1-27.5c0-4.3-0.4-8.3-1.1-12c0-1.6-1-2.4-2.9-2.4h-0.6c-1.4,0-2.9,0.7-4.7,2
		c-0.5,4.5-1.1,6.8-1.7,6.8l1.2,0.9c0.3,2.6,0.6,3.9,0.9,3.9c-1.3,8-2,15.7-2,23.2V97c0,5.9,0.4,12.7,1.2,20.4
		c-0.8,0.8-1.7,1.7-2.7,2.8c-5.2,7.3-10.1,11-14.6,11c-3.4,0-6.1-1.8-8.1-5.3v-0.2c7.8-3.1,11.7-7.1,11.7-12.2c0-1.2-0.3-2.8-0.9-5
		c-3.3-6.8-7.6-10.2-12.8-10.2c-2.6,0-5.7,1-9.2,2.9c-3.1,1.2-4.7,4.2-4.8,9c-2.7-0.8-6.1-1.5-10.4-2c-0.4,0-0.8-1.4-1.1-4.1
		c0-18.8,0.1-29.9,0.1-33.1L52,60c-0.1-1.7-0.3-2.7-0.5-3c-0.4-2.1-2.1-3.2-5.1-3.2h-1.4c-2.6,0.7-3.9,3-3.9,6.8v1.2
		c0.5,7.3,0.9,22.7,1.3,46.3c-4.3,0.9-10.5,1.4-18.3,1.4h-0.9l-0.5-4.1c-0.3-19.9-0.4-32.7-0.4-38.3l0.3-6.6c0-1.3-0.4-2.3-1.1-3
		c0-1-1.6-1.6-4.7-1.7L15.2,56c-1.9,0-3.1,3.6-3.6,10.7V67c0.7,15.1,1,29.4,1.1,42.9c0,0.3-0.8,0.5-2.4,0.6H4.9
		c-1.2,0-1.8,1.8-1.9,5.3c0,0.5,0.2,1,0.6,1.5c1.1,1.6,3.4,2.4,7.1,2.4l1.5-0.2l1.1-0.2c0.5,0.3,0.9,4.1,1.1,11.2
		c-0.3,7.3,0.2,10.9,1.5,10.9l1.8-0.3l4.5,0.3c1.8,0,2.7-2.8,2.5-8.3c0-2-0.2-6.8-0.7-14.3l15.4-0.6l3.1,0.2c0.2,0,0.5,2.1,0.9,6.3
		c0.9,14.1,1.7,23.5,2.4,28c0,1.2,1.4,1.8,4.2,1.8c2.6,0,4.5-0.7,5.7-2.1v-0.2l-0.2-1.5c-1.1-16.8-1.8-26.2-2-28.1
		c0.1-3.4-0.1-5.1-0.4-5.1l0.3-0.3v0.2c0,0.4,3.6,0.8,10.9,1l0.3,5.2v0.3c7.2,10.6,14.5,15.9,21.8,15.9H88c1.3,0,2.7-0.2,4.4-0.6
		c5.6-1.9,9.7-5.2,12.5-9.8c0-0.7,0.6-1.3,1.7-1.6c0.5,3.6,1,7.3,1.6,11.2c1.4,0.9,2.4,1.6,3,2.3c2.2-0.7,3.7-1.1,4.5-1.1
		c1.1-0.3,1.7-1.7,1.7-4.1v-2c-2.4-14.4-3.6-25.8-3.6-34.4V97z M73.3,113c0-1.9,0.3-3.3,0.9-4.4c0-1,0.8-1.5,2.3-1.5l1.2,0.2
		c2.7,1.1,4.1,3.2,4.1,6.3c0,0.9-0.2,1.9-0.6,3c-2.3,1.8-4.1,2.7-5.3,2.7C74.1,118.2,73.3,116.1,73.3,113z"/>
	<path class="st6" d="M127.9,97l1.1-27.5c0-4.3-0.4-8.3-1.1-12c0-1.6-1-2.4-2.9-2.4h-0.6c-1.4,0-2.9,0.7-4.7,2
		c-0.5,4.5-1.1,6.8-1.7,6.8l1.2,0.9c0.3,2.6,0.6,3.9,0.9,3.9c-1.3,8-2,15.7-2,23.2V97c0,11,1.4,25,4.1,42.1c1.4,0.9,2.4,1.6,3,2.3
		c2.2-0.7,3.7-1.1,4.5-1.1c1.1-0.3,1.7-1.7,1.7-4.1v-2c-2.4-14.4-3.6-25.8-3.6-34.4V97z"/>
	<path class="st6" d="M160.5,115.2c-2-6.3-5.6-9.4-10.8-9.4h-0.2c-4,0-6.9,0.5-8.5,1.6c-1.4,1.9-2.3,3-2.8,3.3c-2.2,1-3.4,1.6-3.7,2
		c-1.3,3.9-2,8.2-2,12.9v0.8c0,1.8,0.3,3.6,0.8,5.5c2.2,6.8,6,10.2,11.3,10.2h0.5c2.4,0,5-0.9,8-2.7c5.4-4.4,8.1-10.1,8.1-17.3v-1.4
		C161.3,118.7,161,116.9,160.5,115.2z M151.7,121.7c0,2-0.5,3.9-1.6,6c-1.3,2.4-3.1,4-5.2,4.9c-1.5,0-2.4-2-2.7-6.1l0.3-7.1
		l-0.1-1.2c0.3-0.1,0.7-0.5,1.4-1.4c1.4-2.1,2.9-3.2,4.5-3.2c2.2,2,3.3,4.5,3.3,7.6V121.7z"/>
</g>
</svg>
