<?xml version="1.0" encoding="UTF-8" standalone="no"?>
<!DOCTYPE svg PUBLIC "-//W3C//DTD SVG 1.1//EN" "http://www.w3.org/Graphics/SVG/1.1/DTD/svg11.dtd">
<!-- Generated by Microsoft Visio, SVG Export ext-auth-ok.png.svg Page-1 -->
<svg xmlns="http://www.w3.org/2000/svg" xmlns:xlink="http://www.w3.org/1999/xlink" xmlns:ev="http://www.w3.org/2001/xml-events"
		width="6.43276in" height="6.43644in" viewBox="0 0 463.159 463.424" xml:space="preserve" color-interpolation-filters="sRGB"
		class="st4">
	<style type="text/css">
	<![CDATA[
		.st1 {fill:#008000;stroke:none;stroke-linecap:round;stroke-linejoin:round;stroke-width:0.24}
		.st2 {fill:#34a22b;stroke:none;stroke-linecap:round;stroke-linejoin:round;stroke-width:0.24}
		.st3 {fill:#34a22b;stroke:none;stroke-linecap:round;stroke-linejoin:round;stroke-width:1}
		.st4 {fill:none;fill-rule:evenodd;font-size:12px;overflow:visible;stroke-linecap:square;stroke-miterlimit:3}
	]]>
	</style>

	<g>
		<title>Page-1</title>
		<g id="shape3-1" transform="translate(0.12,-0.384526)">
			<title>Square</title>
			<rect x="0" y="0.504538" width="462.919" height="462.919" class="st1"/>
		</g>
		<g id="shape1-3" transform="translate(128.658,-90.5)">
			<title>Sheet.1</title>
			<path d="M162.22 260.22 L43.51 260.22 L43.51 242.78 A59.3576 59.3576 0 0 1 162.22 242.78 L162.22 260.22 ZM20.54 242.78
						 L20.54 260.22 A20.5841 20.5841 -180 0 0 -0 280.8 L0 442.84 A20.5841 20.5841 -180 0 0 20.58 463.42 L185.26
						 463.42 A20.5841 20.5841 -180 0 0 205.84 442.84 L205.84 280.8 A20.5841 20.5841 -180 0 0 185.26 260.22 L185.19
						 260.22 L185.19 242.78 A82.3234 82.3234 -180 0 0 20.54 242.78 ZM60.7 340.27 A42.2245 42.2245 0 1 1 145.15
						 340.27 A42.2245 42.2245 0 0 1 118.4 379.55 L120.52 438.79 L85.33 438.79 L87.44 379.55 A42.2245 42.2245 0
						 0 1 60.7 340.27 Z" class="st2"/>
		</g>
		<g id="shape2-5" transform="translate(0.697932,-0.5)">
			<title>Sheet.2</title>
			<path d="M278.87 429.09 A202.47 202.47 -180 0 0 337.14 404.81 L327.52 395.19 A189.266 189.266 108.02 0 1 278.87 415.47
						 L278.87 429.09 ZM125.86 405.32 A202.47 202.47 -180 0 0 184.63 429.41 L184.63 415.81 A189.266 189.266 108.02
						 0 1 135.49 395.69 L125.86 405.32 ZM34.28 279.91 A202.47 202.47 -180 0 0 58.95 338.94 L68.56 329.33 A189.266
						 189.266 108.02 0 1 47.89 279.91 L34.28 279.91 ZM58.61 126.29 A202.47 202.47 -180 0 0 34.07 185.66 L47.67
						 185.66 A189.266 189.266 108.02 0 1 68.23 135.9 L58.61 126.29 ZM184.63 35.27 A202.47 202.47 -180 0 0 125.31
						 59.7 L134.93 69.32 A189.266 189.266 108.02 0 1 184.63 48.86 L184.63 35.27 ZM337.69 60.2 A202.47 202.47 -180
						 0 0 278.87 35.59 L278.87 49.21 A189.266 189.266 108.02 0 1 328.08 69.81 L337.69 60.2 ZM427.89 279.91 L414.28
						 279.91 A189.266 189.266 108.02 0 1 394.1 328.5 L403.73 338.12 A202.47 202.47 -180 0 0 427.89 279.91 ZM428.1
						 185.66 A202.47 202.47 -180 0 0 404.06 127.11 L394.43 136.74 A189.266 189.266 108.02 0 1 414.5 185.66 L428.1
						 185.66 ZM77.38 62.55 A30.8113 30.8113 -180 1 0 100.96 119.49 A30.8113 30.8113 -180 0 0 77.38 62.55 ZM219.71
						 3.6 A30.8113 30.8113 -180 1 0 243.29 60.53 A30.8113 30.8113 -180 0 0 219.71 3.6 ZM360.21 62.13 A30.8113
						 30.8113 -180 0 0 383.79 119.06 A30.8113 30.8113 -180 1 0 360.21 62.13 ZM419.16 204.46 A30.8113 30.8113 -180
						 1 0 442.74 261.39 A30.8113 30.8113 -180 0 0 419.16 204.46 ZM361.2 345.19 A30.8113 30.8113 -180 1 0 384.79
						 402.12 A30.8113 30.8113 -180 1 0 361.2 345.19 ZM218.87 404.15 A30.8113 30.8113 -180 1 0 242.46 461.08 A30.8113
						 30.8113 -180 1 0 218.87 404.15 ZM77.98 345.78 A30.8113 30.8113 -180 1 0 101.56 402.72 A30.8113 30.8113 -180
						 0 0 77.98 345.78 ZM19.02 203.45 A30.8113 30.8113 -180 1 0 42.6 260.39 A30.8113 30.8113 -180 0 0 19.02 203.45
						 Z" class="st3"/>
		</g>
	</g>
</svg>
