<?xml version="1.0" encoding="UTF-8" standalone="no"?>
<!DOCTYPE svg PUBLIC "-//W3C//DTD SVG 1.1//EN" "http://www.w3.org/Graphics/SVG/1.1/DTD/svg11.dtd">
<!-- Generated by Microsoft Visio, SVG Export ext-auth-needed.svg Page-1 -->
<svg xmlns="http://www.w3.org/2000/svg" xmlns:xlink="http://www.w3.org/1999/xlink" xmlns:ev="http://www.w3.org/2001/xml-events"
		width="6.43588in" height="6.45013in" viewBox="0 0 463.383 464.409" xml:space="preserve" color-interpolation-filters="sRGB"
		class="st4">
	<style type="text/css">
	<![CDATA[
		.st1 {fill:#ff9900;stroke:none;stroke-linecap:round;stroke-linejoin:round;stroke-width:0.24}
		.st2 {fill:#ffc000;stroke:none;stroke-linecap:round;stroke-linejoin:round;stroke-width:0.24}
		.st3 {fill:#ffc000;stroke:none;stroke-linecap:round;stroke-linejoin:round;stroke-width:1}
		.st4 {fill:none;fill-rule:evenodd;font-size:12px;overflow:visible;stroke-linecap:square;stroke-miterlimit:3}
	]]>
	</style>

	<g>
		<title>Page-1</title>
		<g id="shape9-1" transform="translate(0.5,-0.62)">
			<title>Rectangle</title>
			<rect x="0" y="1.12" width="462.383" height="463.289" class="st1"/>
		</g>
		<g id="shape5-3" transform="translate(128.46,-91.12)">
			<title>Sheet.5</title>
			<path d="M162.22 261.2 L43.51 261.2 L43.51 243.77 A59.3576 59.3576 0 0 1 162.22 243.77 L162.22 261.2 ZM20.54 243.77 L20.54
						 261.2 A20.5841 20.5841 -180 0 0 -0 281.79 L0 443.82 A20.5841 20.5841 -180 0 0 20.58 464.41 L185.26 464.41
						 A20.5841 20.5841 -180 0 0 205.84 443.82 L205.84 281.79 A20.5841 20.5841 -180 0 0 185.26 261.2 L185.19 261.2
						 L185.19 243.77 A82.3234 82.3234 -180 0 0 20.54 243.77 ZM60.7 341.25 A42.2245 42.2245 0 1 1 145.15 341.25
						 A42.2245 42.2245 0 0 1 118.4 380.54 L120.52 439.78 L85.33 439.78 L87.44 380.54 A42.2245 42.2245 0 0 1 60.7
						 341.25 Z" class="st2"/>
		</g>
		<g id="shape8-5" transform="translate(0.5,-0.5)">
			<title>Sheet.8</title>
			<path d="M279.25 429.98 A202.742 203.013 -180 0 0 337.59 405.64 L327.96 396 A189.52 189.773 0 0 1 279.25 416.33 L279.25
						 429.98 ZM126.03 406.15 A202.742 203.013 -180 0 0 184.87 430.3 L184.87 416.67 A189.52 189.773 0 0 1 135.67
						 396.49 L126.03 406.15 ZM34.33 280.4 A202.742 203.013 -180 0 0 59.03 339.59 L68.65 329.96 A189.52 189.773
						 0 0 1 47.96 280.4 L34.33 280.4 ZM58.69 126.37 A202.742 203.013 -180 0 0 34.11 185.9 L47.73 185.9 A189.52
						 189.773 0 0 1 68.32 136.01 L58.69 126.37 ZM184.87 35.11 A202.742 203.013 -180 0 0 125.47 59.6 L135.11 69.25
						 A189.52 189.773 0 0 1 184.87 48.74 L184.87 35.11 ZM338.14 60.11 A202.742 203.013 -180 0 0 279.25 35.43 L279.25
						 49.08 A189.52 189.773 0 0 1 328.52 69.74 L338.14 60.11 ZM428.46 280.4 L414.83 280.4 A189.52 189.773 0 0
						 1 394.63 329.12 L404.27 338.77 A202.742 203.013 -180 0 0 428.46 280.4 ZM428.68 185.9 A202.742 203.013 -180
						 0 0 404.61 127.2 L394.96 136.85 A189.52 189.773 0 0 1 415.06 185.9 L428.68 185.9 ZM77.49 62.46 A30.8527
						 30.894 -180 1 0 101.1 119.55 A30.8527 30.894 -180 1 0 77.49 62.46 ZM220.01 3.35 A30.8527 30.894 -180 0 0
						 243.62 60.44 A30.8527 30.894 -180 0 0 220.01 3.35 ZM360.69 62.04 A30.8527 30.894 -180 0 0 384.3 119.12 A30.8527
						 30.894 -180 0 0 360.69 62.04 ZM419.72 204.75 A30.8527 30.894 -180 0 0 443.34 261.84 A30.8527 30.894 -180
						 0 0 419.72 204.75 ZM361.69 345.86 A30.8527 30.894 -180 1 0 385.3 402.94 A30.8527 30.894 -180 0 0 361.69
						 345.86 ZM219.17 404.97 A30.8527 30.894 -180 1 0 242.78 462.06 A30.8527 30.894 -180 0 0 219.17 404.97 ZM78.08
						 346.45 A30.8527 30.894 -180 0 0 101.69 403.54 A30.8527 30.894 -180 0 0 78.08 346.45 ZM19.05 203.74 A30.8527
						 30.894 -180 1 0 42.66 260.83 A30.8527 30.894 -180 0 0 19.05 203.74 Z" class="st3"/>
		</g>
	</g>
</svg>
